<svg width="72" height="72" viewBox="0 0 72 72" fill="none" xmlns="http://www.w3.org/2000/svg">
<g clip-path="url(#clip0_115_133)">
<path d="M36 72C55.8823 72 72 55.8823 72 36C72 16.1178 55.8823 0 36 0C16.1178 0 0 16.1178 0 36C0 55.8823 16.1178 72 36 72Z" fill="#59AF99"/>
<path d="M39.7367 31.5685V27.3169H49.4099V20.6101H22.5648V27.3169H32.2632V31.5685C24.138 31.9609 18.0396 33.5917 18.0396 35.5285C18.0396 37.4653 24.1308 39.1033 32.2632 39.4885V53.5285H39.7367V39.4885C47.8619 39.0997 53.9604 37.4689 53.9604 35.5285C53.9604 33.5881 47.8799 31.9609 39.7367 31.5685ZM36 38.2501C27.2015 38.2501 20.07 36.8893 20.07 35.2513C20.07 33.8437 25.2647 32.6593 32.2559 32.3425V37.1449C33.4583 37.1989 34.7076 37.2313 35.9928 37.2313C37.278 37.2313 38.5343 37.1989 39.7295 37.1449V32.3425C46.7207 32.6593 51.9156 33.8437 51.9156 35.2513C51.93 36.9073 44.7983 38.2501 36 38.2501Z" fill="black"/>
<g clip-path="url(#clip1_115_133)">
<path d="M36 72C55.8823 72 72 55.8823 72 36C72 16.1178 55.8823 0 36 0C16.1178 0 0 16.1178 0 36C0 55.8823 16.1178 72 36 72Z" fill="#2B53B7"/>
<path d="M49.7915 43.8013V43.9525L48.6323 48.0745C48.5634 48.2791 48.43 48.456 48.2522 48.5786C48.0745 48.7012 47.8618 48.7631 47.646 48.7549L23.8859 49.8961L27.3383 37.9153L22.9355 39.2833L23.8283 36.5509L28.2239 35.1649L33.0839 18.3601C33.1526 18.1514 33.2852 17.9696 33.4628 17.8404C33.6405 17.7112 33.8543 17.6411 34.0739 17.6401L40.0139 17.3737C40.2101 17.3465 40.4092 17.3967 40.5691 17.5136C40.7289 17.6304 40.8371 17.8049 40.8707 18.0001V18.2305L36.8243 32.4289L41.2307 31.0429L40.4135 33.9229L35.9315 35.2405L33.4115 43.9525L48.9239 43.2685C49.1092 43.2298 49.3023 43.2634 49.4636 43.3625C49.6249 43.4615 49.7422 43.6185 49.7915 43.8013Z" fill="black"/>
<g clip-path="url(#clip2_115_133)">
<path d="M36 72C55.8823 72 72 55.8823 72 36C72 16.1178 55.8823 0 36 0C16.1178 0 0 16.1178 0 36C0 55.8823 16.1178 72 36 72Z" fill="#0939B1"/>
<path d="M26.3377 35.8524C26.2974 36.6123 26.5595 37.3573 27.0668 37.9246C27.574 38.4919 28.2852 38.8354 29.0449 38.88H29.2141C29.7769 38.8791 30.3272 38.7134 30.7969 38.4033C31.2666 38.0932 31.6351 37.6522 31.8569 37.1349C32.0787 36.6176 32.144 36.0467 32.0449 35.4926C31.9457 34.9386 31.6864 34.4257 31.299 34.0175C30.9116 33.6092 30.413 33.3234 29.8649 33.1954C29.3168 33.0674 28.7432 33.1028 28.215 33.2973C27.6868 33.4917 27.2272 33.8367 26.8929 34.2895C26.5586 34.7423 26.3644 35.2831 26.3341 35.8452L26.3377 35.8524ZM15.5017 35.1252C15.2731 35.1281 15.0539 35.2166 14.8873 35.3732C14.7207 35.5298 14.6188 35.7432 14.6017 35.9712V36C14.5928 36.2445 14.6795 36.4828 14.8436 36.6643C15.0076 36.8458 15.236 36.9562 15.4801 36.972C15.6993 36.9383 15.8995 36.828 16.0449 36.6606C16.1903 36.4931 16.2716 36.2795 16.2742 36.0577C16.2768 35.836 16.2005 35.6205 16.0591 35.4497C15.9176 35.2789 15.7201 35.1639 15.5017 35.1252ZM26.1577 19.1268C26.3766 19.0124 26.5414 18.8162 26.6162 18.5809C26.6911 18.3455 26.6699 18.0901 26.5573 17.8704C26.4432 17.6511 26.2485 17.4846 26.0142 17.406C25.7798 17.3275 25.5241 17.3429 25.3009 17.4492C25.092 17.5703 24.9375 17.7669 24.8692 17.9985C24.801 18.2301 24.8241 18.4791 24.934 18.6942C25.0438 18.9092 25.2319 19.0739 25.4596 19.1544C25.6873 19.2349 25.9371 19.225 26.1577 19.1268ZM28.8721 24.318C28.9421 24.2902 29.0095 24.2565 29.0737 24.2172C29.2594 24.1532 29.4301 24.052 29.5753 23.9196C29.7204 23.7873 29.8369 23.6266 29.9177 23.4476C29.9984 23.2685 30.0417 23.0749 30.0448 22.8785C30.048 22.6821 30.0109 22.4871 29.9358 22.3056C29.8608 22.124 29.7495 21.9598 29.6086 21.8229C29.4677 21.686 29.3003 21.5794 29.1167 21.5096C28.9331 21.4398 28.7372 21.4083 28.541 21.417C28.3447 21.4257 28.1524 21.4745 27.9757 21.5604C27.9069 21.5882 27.8407 21.6219 27.7777 21.6612C27.4588 21.8263 27.2131 22.1046 27.0888 22.4415C26.9645 22.7784 26.9705 23.1496 27.1057 23.4822C27.241 23.8149 27.4956 24.085 27.8197 24.2397C28.1439 24.3943 28.5141 24.4222 28.8577 24.318H28.8721ZM20.9197 27.5616C21.1203 27.3156 21.2151 27 21.1834 26.6842C21.1517 26.3683 20.996 26.078 20.7505 25.8768C20.6824 25.8214 20.6088 25.7731 20.5309 25.7328C20.3291 25.631 20.1027 25.5884 19.8777 25.6098C19.6527 25.6312 19.4384 25.7158 19.2594 25.8537C19.0804 25.9917 18.9441 26.1774 18.8661 26.3895C18.7881 26.6016 18.7717 26.8315 18.8186 27.0525C18.8656 27.2736 18.9742 27.4768 19.1317 27.6389C19.2892 27.8009 19.4893 27.9151 19.709 27.9683C19.9286 28.0215 20.1588 28.0116 20.373 27.9396C20.5872 27.8676 20.7767 27.7366 20.9197 27.5616ZM20.9953 34.596C20.7108 34.58 20.428 34.6488 20.1826 34.7936C19.9373 34.9384 19.7404 35.1528 19.6169 35.4096C19.4934 35.6664 19.4489 35.954 19.4889 36.2361C19.529 36.5182 19.6518 36.7821 19.8419 36.9943C20.0319 37.2066 20.2807 37.3577 20.5567 37.4285C20.8327 37.4993 21.1235 37.4867 21.3923 37.3922C21.6611 37.2977 21.8958 37.1255 22.0667 36.8976C22.2376 36.6696 22.3371 36.3961 22.3525 36.1116C22.3627 35.9224 22.3355 35.7331 22.2724 35.5545C22.2093 35.3758 22.1116 35.2114 21.9848 35.0706C21.8581 34.9298 21.7048 34.8154 21.5337 34.734C21.3627 34.6525 21.1773 34.6056 20.9881 34.596H20.9953ZM19.3933 44.2584C19.114 44.3982 18.9015 44.6431 18.8023 44.9393C18.7031 45.2355 18.7253 45.5589 18.8641 45.8388C19.0073 46.119 19.256 46.3308 19.5554 46.4277C19.8548 46.5246 20.1805 46.4986 20.4607 46.3554C20.7409 46.2121 20.9528 45.9635 21.0497 45.6641C21.1466 45.3646 21.1205 45.039 20.9773 44.7588C20.8297 44.4863 20.582 44.2818 20.2864 44.1884C19.9909 44.095 19.6707 44.1201 19.3933 44.2584ZM24.9805 31.6224C25.3428 31.8902 25.7967 32.0031 26.2423 31.9362C26.6879 31.8694 27.0887 31.6283 27.3565 31.266C27.6243 30.9036 27.7372 30.4497 27.6704 30.0042C27.6036 29.5586 27.3624 29.1578 27.0001 28.89C26.9507 28.8531 26.899 28.8194 26.8453 28.7892C26.6652 28.6671 26.4628 28.5818 26.2497 28.538C26.0366 28.4942 25.817 28.4928 25.6034 28.5339C25.3897 28.5751 25.1863 28.6579 25.0047 28.7776C24.8231 28.8974 24.6668 29.0518 24.5449 29.232L24.5089 29.286C24.2623 29.656 24.1727 30.1088 24.2597 30.5449C24.3468 30.981 24.6035 31.3646 24.9733 31.6116L24.9805 31.6224ZM42.7285 24.12C42.8868 24.2236 43.0641 24.295 43.25 24.3301C43.436 24.3652 43.627 24.3633 43.8123 24.3246C43.9975 24.2858 44.1733 24.2109 44.3295 24.1041C44.4858 23.9973 44.6194 23.8608 44.7229 23.7024C44.9343 23.3852 45.0113 22.9972 44.9371 22.6233C44.8628 22.2495 44.6434 21.9203 44.3269 21.708C44.0083 21.4991 43.6199 21.425 43.2467 21.5019C42.8736 21.5789 42.5461 21.8005 42.3361 22.1184C42.2299 22.2711 42.1549 22.4434 42.1155 22.6252C42.0761 22.807 42.073 22.9948 42.1065 23.1778C42.14 23.3609 42.2093 23.5355 42.3105 23.6916C42.4116 23.8477 42.5427 23.9823 42.6961 24.0876L42.7285 24.12ZM45.6805 19.026C45.7778 19.0929 45.8873 19.14 46.0029 19.1645C46.1184 19.189 46.2377 19.1904 46.3537 19.1686C46.4698 19.1469 46.5805 19.1024 46.6793 19.0378C46.7781 18.9731 46.8632 18.8896 46.9297 18.792L46.9585 18.7488C47.0257 18.6486 47.0725 18.5361 47.0962 18.4178C47.1199 18.2995 47.1201 18.1777 47.0967 18.0593C47.0733 17.941 47.0268 17.8284 46.9598 17.728C46.8929 17.6276 46.8068 17.5414 46.7065 17.4744C46.6145 17.3857 46.5053 17.3167 46.3856 17.2716C46.266 17.2266 46.1384 17.2064 46.0107 17.2124C45.883 17.2183 45.7579 17.2503 45.643 17.3063C45.5281 17.3622 45.4258 17.4411 45.3424 17.538C45.259 17.6349 45.1963 17.7477 45.158 17.8697C45.1197 17.9917 45.1068 18.1202 45.1199 18.2473C45.133 18.3745 45.1719 18.4977 45.2343 18.6092C45.2966 18.7208 45.3811 18.8185 45.4825 18.8964C45.5429 18.9476 45.6094 18.9911 45.6805 19.026ZM39.9133 35.8128C39.8711 36.5751 40.1333 37.323 40.6423 37.8921C41.1513 38.4612 41.8654 38.8048 42.6277 38.8476H42.7861C43.3489 38.8468 43.8992 38.681 44.3689 38.3709C44.8386 38.0608 45.2071 37.6198 45.4289 37.1025C45.6507 36.5852 45.716 36.0143 45.6169 35.4602C45.5177 34.9062 45.2584 34.3933 44.871 33.9851C44.4835 33.5768 43.985 33.291 43.4369 33.163C42.8888 33.035 42.3152 33.0704 41.787 33.2649C41.2588 33.4593 40.7992 33.8043 40.4649 34.2571C40.1306 34.7099 39.9364 35.2507 39.9061 35.8128H39.9133ZM30.0133 31.4028C30.3001 31.991 30.7787 32.464 31.3703 32.7439C31.9619 33.0237 32.6311 33.0938 33.2678 32.9424C33.9045 32.7911 34.4707 32.4275 34.8731 31.9114C35.2755 31.3953 35.4902 30.7575 35.4817 30.1032C35.4825 29.6515 35.3725 29.2065 35.1613 28.8072C34.8171 28.1245 34.2158 27.6065 33.4897 27.3672C32.7636 27.1279 31.9722 27.1868 31.2895 27.531C30.6068 27.8752 30.0889 28.4765 29.8495 29.2026C29.6102 29.9287 29.6691 30.7201 30.0133 31.4028ZM51.5089 25.6032C51.2277 25.7478 51.0152 25.9979 50.918 26.2989C50.8209 26.5998 50.8469 26.927 50.9905 27.2088C51.1412 27.4868 51.3939 27.6955 51.6954 27.7908C51.997 27.8862 52.3237 27.8608 52.6069 27.72C52.7628 27.6592 52.9043 27.5665 53.0223 27.4478C53.1402 27.3291 53.232 27.187 53.2917 27.0306C53.3515 26.8743 53.3778 26.7072 53.369 26.5401C53.3602 26.3729 53.3166 26.2095 53.2408 26.0603C53.1651 25.911 53.0589 25.7793 52.9292 25.6736C52.7994 25.5679 52.649 25.4905 52.4876 25.4464C52.3261 25.4023 52.1572 25.3926 51.9918 25.4177C51.8263 25.4428 51.668 25.5023 51.5269 25.5924L51.5089 25.6032ZM45.3277 28.6344H45.3025C45.1047 28.731 44.9279 28.8658 44.7824 29.0311C44.6369 29.1963 44.5254 29.3886 44.4545 29.5971C44.3836 29.8055 44.3546 30.0259 44.3691 30.2456C44.3837 30.4653 44.4415 30.6799 44.5393 30.8772C44.6861 31.1786 44.9189 31.4297 45.2083 31.5989C45.4977 31.768 45.8308 31.8476 46.1654 31.8275C46.5001 31.8074 46.8213 31.6885 47.0884 31.486C47.3555 31.2834 47.5566 31.0062 47.6662 30.6894C47.7758 30.3726 47.7891 30.0304 47.7043 29.706C47.6195 29.3817 47.4405 29.0898 47.1898 28.8672C46.9392 28.6445 46.6281 28.5012 46.2961 28.4553C45.964 28.4094 45.6258 28.4629 45.3241 28.6092L45.3277 28.6344ZM35.8813 18.5868C36.1128 18.5976 36.3423 18.5398 36.5411 18.4207C36.7399 18.3016 36.8991 18.1265 36.9988 17.9173C37.0985 17.7081 37.1343 17.4742 37.1016 17.2448C37.0689 17.0153 36.9692 16.8007 36.815 16.6277C36.6609 16.4546 36.459 16.331 36.2349 16.2722C36.0107 16.2134 35.7742 16.222 35.555 16.2971C35.3357 16.3721 35.1435 16.5102 35.0024 16.694C34.8613 16.8778 34.7775 17.0992 34.7617 17.3304C34.7514 17.6435 34.8619 17.9485 35.0703 18.1824C35.2787 18.4163 35.5691 18.5611 35.8813 18.5868ZM35.8561 26.01H35.8813C36.2156 26.0285 36.5479 25.9476 36.8363 25.7776C37.1247 25.6076 37.3563 25.356 37.5019 25.0545C37.6475 24.753 37.7007 24.4152 37.6546 24.0836C37.6085 23.752 37.4653 23.4414 37.243 23.1911C37.0207 22.9408 36.7293 22.7618 36.4054 22.6769C36.0816 22.5919 35.7398 22.6047 35.4233 22.7137C35.1067 22.8226 34.8295 23.0229 34.6265 23.2892C34.4236 23.5554 34.304 23.8758 34.2829 24.21C34.2663 24.4318 34.2939 24.6547 34.3643 24.8658C34.4346 25.0769 34.5463 25.2718 34.6927 25.4393C34.8391 25.6068 35.0173 25.7435 35.2171 25.8415C35.4168 25.9395 35.634 25.9967 35.8561 26.01ZM26.6725 43.3512H26.6977C26.8953 43.2538 27.0718 43.1184 27.2171 42.9528C27.3624 42.7872 27.4737 42.5946 27.5446 42.386C27.6154 42.1774 27.6445 41.9569 27.6302 41.7371C27.6158 41.5172 27.5583 41.3024 27.4609 41.1048C27.3141 40.8034 27.0813 40.5522 26.7919 40.3831C26.5025 40.2139 26.1694 40.1344 25.8348 40.1545C25.5001 40.1746 25.179 40.2934 24.9118 40.496C24.6447 40.6985 24.4436 40.9757 24.334 41.2925C24.2244 41.6094 24.2111 41.9515 24.2959 42.2759C24.3807 42.6002 24.5597 42.8921 24.8104 43.1148C25.061 43.3374 25.3721 43.4807 25.7041 43.5266C26.0362 43.5726 26.3744 43.519 26.6761 43.3728L26.6725 43.3512ZM36.9793 28.5264C36.6264 29.0623 36.4625 29.7008 36.5138 30.3404C36.5651 30.9801 36.8285 31.5843 37.2623 32.0572C37.6961 32.5301 38.2754 32.8445 38.9083 32.9507C39.5411 33.0568 40.1913 32.9485 40.7557 32.643C41.32 32.3375 41.7661 31.8523 42.0233 31.2644C42.2804 30.6764 42.3338 30.0194 42.175 29.3977C42.0162 28.7759 41.6543 28.225 41.1468 27.8324C40.6392 27.4397 40.015 27.2278 39.3733 27.2304C38.8976 27.2283 38.429 27.346 38.0107 27.5724C37.5923 27.7989 37.2377 28.1269 36.9793 28.5264ZM41.9905 40.608V40.5864C41.7361 40.0763 41.3362 39.6532 40.8412 39.3706C40.3463 39.088 39.7787 38.9587 39.2101 38.9988C38.6416 39.039 38.0978 39.247 37.6476 39.5964C37.1973 39.9458 36.8608 40.421 36.6808 40.9617C36.5007 41.5024 36.4851 42.0844 36.636 42.634C36.7868 43.1836 37.0974 43.6761 37.5283 44.0491C37.9592 44.4222 38.4911 44.6589 39.0566 44.7295C39.6222 44.8001 40.1959 44.7013 40.7053 44.4456C41.042 44.2783 41.3423 44.0463 41.5892 43.7628C41.8361 43.4793 42.0246 43.1498 42.144 42.7934C42.2634 42.4369 42.3113 42.0604 42.2849 41.6854C42.2586 41.3104 42.1585 40.9442 41.9905 40.608ZM47.0197 40.3632C46.6574 40.0963 46.2039 39.9843 45.7589 40.0518C45.314 40.1193 44.9142 40.3608 44.6473 40.7232C44.3804 41.0855 44.2684 41.539 44.336 41.9839C44.4035 42.4288 44.645 42.8287 45.0073 43.0956C45.0566 43.1337 45.1083 43.1685 45.1621 43.2C45.3424 43.3218 45.545 43.4069 45.7582 43.4505C45.9715 43.494 46.1912 43.495 46.4048 43.4536C46.6185 43.4121 46.8219 43.329 47.0033 43.2088C47.1848 43.0887 47.3409 42.934 47.4625 42.7536L47.4985 42.6996C47.7451 42.3295 47.8348 41.8767 47.7477 41.4406C47.6606 41.0046 47.4039 40.6209 47.0341 40.374L47.0197 40.3632ZM51.0121 37.512C51.2039 37.5221 51.3958 37.4938 51.5764 37.4287C51.7571 37.3636 51.923 37.263 52.0642 37.1329C52.2054 37.0027 52.3192 36.8456 52.3988 36.6708C52.4784 36.4961 52.5222 36.3071 52.5277 36.1152C52.5313 36.0744 52.5313 36.0335 52.5277 35.9928C52.5119 35.7155 52.4164 35.4487 52.2524 35.2246C52.0885 35.0004 51.8633 34.8284 51.6039 34.7293C51.3445 34.6302 51.0619 34.6082 50.7903 34.666C50.5187 34.7238 50.2696 34.8589 50.073 35.055C49.8764 35.2512 49.7407 35.5 49.6823 35.7715C49.6238 36.0429 49.6451 36.3255 49.7436 36.5852C49.8421 36.8448 50.0136 37.0705 50.2373 37.2349C50.4611 37.3993 50.7277 37.4955 51.0049 37.512H51.0121ZM56.5201 35.0136C56.3998 35.0057 56.2791 35.0217 56.1649 35.0605C56.0508 35.0994 55.9454 35.1603 55.8548 35.2399C55.7642 35.3194 55.6902 35.4161 55.6369 35.5243C55.5837 35.6324 55.5523 35.75 55.5445 35.8704V35.892C55.5362 36.0126 55.5518 36.1336 55.5904 36.2482C55.629 36.3628 55.6899 36.4686 55.7695 36.5596C55.8491 36.6506 55.9459 36.7249 56.0543 36.7784C56.1627 36.8319 56.2807 36.8634 56.4013 36.8712H56.4229C56.6692 36.8845 56.9108 36.7995 57.0944 36.6348C57.2781 36.47 57.3887 36.2391 57.4021 35.9928C57.4155 35.7464 57.3304 35.5049 57.1657 35.3212C57.001 35.1376 56.77 35.0269 56.5237 35.0136H56.5201ZM51.0805 44.424C50.8799 44.67 50.7851 44.9855 50.8168 45.3013C50.8485 45.6172 51.0042 45.9076 51.2497 46.1088C51.3169 46.1653 51.3906 46.2137 51.4693 46.2528C51.6711 46.3545 51.8975 46.3971 52.1225 46.3757C52.3475 46.3543 52.5618 46.2698 52.7408 46.1318C52.9198 45.9938 53.0561 45.8081 53.1341 45.596C53.2121 45.3839 53.2285 45.1541 53.1816 44.933C53.1346 44.712 53.026 44.5087 52.8685 44.3467C52.711 44.1846 52.5109 44.0704 52.2912 44.0172C52.0716 43.964 51.8414 43.9739 51.6272 44.0459C51.413 44.1179 51.2235 44.2489 51.0805 44.424ZM26.3197 52.9596C26.1128 52.8223 25.8599 52.7725 25.6164 52.821C25.3729 52.8696 25.1585 53.0126 25.0201 53.2188C24.8887 53.4277 24.8426 53.6792 24.8916 53.9211C24.9405 54.1631 25.0806 54.3769 25.2829 54.5184C25.4921 54.6525 25.746 54.6982 25.9889 54.6456C26.2318 54.593 26.4439 54.4463 26.5789 54.2376C26.7137 54.0349 26.7628 53.7872 26.7156 53.5484C26.6684 53.3097 26.5287 53.0993 26.3269 52.9632L26.3197 52.9596ZM45.8425 52.8588C45.6234 52.9738 45.4585 53.1707 45.3837 53.4066C45.3088 53.6425 45.3301 53.8984 45.4429 54.1188C45.5576 54.3374 45.7526 54.5031 45.9869 54.581C46.2212 54.6589 46.4765 54.6429 46.6993 54.5364C46.9082 54.4153 47.0627 54.2186 47.131 53.987C47.1992 53.7554 47.1761 53.5064 47.0662 53.2914C46.9564 53.0763 46.7683 52.9116 46.5406 52.8311C46.3129 52.7506 46.0631 52.7605 45.8425 52.8588ZM35.0209 43.4592C35.3313 42.982 35.4933 42.4236 35.4865 41.8544C35.4797 41.2852 35.3043 40.7309 34.9827 40.2613C34.661 39.7917 34.2073 39.4279 33.6791 39.216C33.1508 39.004 32.5716 38.9534 32.0145 39.0704C31.4575 39.1874 30.9476 39.4669 30.5493 39.8735C30.151 40.2802 29.8821 40.7957 29.7766 41.3551C29.6711 41.9144 29.7337 42.4925 29.9565 43.0163C30.1793 43.54 30.5524 43.9861 31.0285 44.298C31.5002 44.5966 32.047 44.7551 32.6053 44.7552C33.0855 44.7657 33.5603 44.6518 33.9835 44.4248C34.4067 44.1977 34.7641 43.8651 35.0209 43.4592ZM29.2717 47.97C29.1134 47.8663 28.9361 47.7949 28.7502 47.7598C28.5642 47.7247 28.3732 47.7266 28.1879 47.7654C28.0027 47.8042 27.8269 47.8791 27.6707 47.9858C27.5144 48.0926 27.3808 48.2291 27.2773 48.3876C27.0659 48.7047 26.9889 49.0928 27.0631 49.4666C27.1374 49.8404 27.3568 50.1696 27.6733 50.382C27.9919 50.5908 28.3803 50.6649 28.7535 50.588C29.1266 50.5111 29.4541 50.2894 29.6641 49.9716C29.7703 49.8188 29.8453 49.6466 29.8847 49.4647C29.9241 49.2829 29.9272 49.0951 29.8937 48.9121C29.8602 48.7291 29.7909 48.5545 29.6897 48.3983C29.5886 48.2422 29.4575 48.1076 29.3041 48.0024L29.2717 47.97ZM36.0253 53.4024H36.0001C35.688 53.3867 35.3825 53.4953 35.1503 53.7045C34.9182 53.9137 34.7785 54.2063 34.7617 54.5184C34.7495 54.7506 34.8062 54.9813 34.9247 55.1815C35.0431 55.3816 35.218 55.5423 35.4274 55.6435C35.6369 55.7446 35.8715 55.7816 36.1019 55.7499C36.3323 55.7182 36.5482 55.6191 36.7225 55.4652C36.8969 55.3112 37.0218 55.1092 37.0818 54.8845C37.1417 54.6598 37.134 54.4224 37.0595 54.202C36.985 53.9817 36.8472 53.7883 36.6632 53.646C36.4792 53.5037 36.2573 53.419 36.0253 53.4024ZM36.0253 45.9756H36.0001C35.6657 45.9563 35.3331 46.0365 35.0443 46.2061C34.7554 46.3757 34.5233 46.627 34.3771 46.9284C34.2309 47.2297 34.1773 47.5676 34.2229 47.8994C34.2686 48.2312 34.4114 48.5421 34.6336 48.7928C34.8557 49.0435 35.1471 49.2228 35.471 49.3081C35.7949 49.3934 36.1368 49.3808 36.4536 49.272C36.7703 49.1632 37.0478 48.963 37.2509 48.6967C37.454 48.4303 37.5737 48.1098 37.5949 47.7756C37.6115 47.554 37.584 47.3313 37.5139 47.1205C37.4437 46.9097 37.3324 46.7149 37.1864 46.5474C37.0404 46.38 36.8625 46.2432 36.6632 46.145C36.4639 46.0468 36.2471 45.9892 36.0253 45.9756ZM42.9265 47.772C42.6731 47.9025 42.4641 48.1053 42.326 48.3547C42.188 48.6041 42.127 48.8888 42.1509 49.1729C42.1748 49.4569 42.2825 49.7275 42.4603 49.9503C42.6381 50.1731 42.878 50.3381 43.1496 50.4245C43.4213 50.5108 43.7125 50.5146 43.9863 50.4353C44.2601 50.3561 44.5042 50.1973 44.6877 49.9792C44.8713 49.7611 44.9859 49.4934 45.0172 49.21C45.0484 48.9267 44.9949 48.6404 44.8633 48.3876C44.6875 48.0497 44.385 47.7952 44.022 47.6798C43.659 47.5644 43.2651 47.5976 42.9265 47.772Z" fill="black"/>
</g>
</g>
</g>
<defs>
<clipPath id="clip0_115_133">
<rect width="72" height="72" fill="black"/>
</clipPath>
<clipPath id="clip1_115_133">
<rect width="72" height="72" fill="black"/>
</clipPath>
<clipPath id="clip2_115_133">
<rect width="72" height="72" fill="black"/>
</clipPath>
</defs>
</svg>
