<svg width="57" height="57" viewBox="0 0 57 57" fill="none" xmlns="http://www.w3.org/2000/svg">
<mask id="mask0_637_249" style="mask-type:alpha" maskUnits="userSpaceOnUse" x="0" y="0" width="57" height="57">
<rect width="56.0874" height="56.0874" fill="#D9D9D9"/>
</mask>
<g mask="url(#mask0_637_249)">
<path d="M14.0217 42.0674L8.64669 47.4424C7.90664 48.1825 7.05949 48.348 6.10523 47.939C5.15096 47.5301 4.67383 46.7998 4.67383 45.7481V9.34973C4.67383 8.0644 5.13149 6.96407 6.0468 6.04875C6.96212 5.13344 8.06244 4.67578 9.34778 4.67578H46.7394C48.0247 4.67578 49.125 5.13344 50.0404 6.04875C50.9557 6.96407 51.4133 8.0644 51.4133 9.34973V37.3934C51.4133 38.6788 50.9557 39.7791 50.0404 40.6944C49.125 41.6097 48.0247 42.0674 46.7394 42.0674H14.0217ZM25.7066 25.7086V30.3825C25.7066 31.0447 25.9306 31.5997 26.3785 32.0476C26.8264 32.4955 27.3814 32.7195 28.0436 32.7195C28.7057 32.7195 29.2608 32.4955 29.7087 32.0476C30.1566 31.5997 30.3806 31.0447 30.3806 30.3825V25.7086H35.0545C35.7166 25.7086 36.2717 25.4846 36.7196 25.0367C37.1675 24.5888 37.3915 24.0337 37.3915 23.3716C37.3915 22.7094 37.1675 22.1544 36.7196 21.7065C36.2717 21.2586 35.7166 21.0346 35.0545 21.0346H30.3806V16.3607C30.3806 15.6985 30.1566 15.1435 29.7087 14.6956C29.2608 14.2476 28.7057 14.0237 28.0436 14.0237C27.3814 14.0237 26.8264 14.2476 26.3785 14.6956C25.9306 15.1435 25.7066 15.6985 25.7066 16.3607V21.0346H21.0327C20.3705 21.0346 19.8155 21.2586 19.3676 21.7065C18.9196 22.1544 18.6957 22.7094 18.6957 23.3716C18.6957 24.0337 18.9196 24.5888 19.3676 25.0367C19.8155 25.4846 20.3705 25.7086 21.0327 25.7086H25.7066Z" fill="#43C0FF"/>
</g>
</svg>
