<svg width="72" height="72" viewBox="0 0 72 72" fill="none" xmlns="http://www.w3.org/2000/svg">
<circle cx="36" cy="36" r="36" fill="#C4A939"/>
<path d="M21.4324 48H13.3519V24.1546H21.5954C23.9628 24.1546 25.9965 24.632 27.6964 25.5867C29.4041 26.5337 30.7159 27.896 31.6318 29.6735C32.5478 31.4511 33.0058 33.5779 33.0058 36.054C33.0058 38.5379 32.5439 40.6725 31.6202 42.4578C30.7043 44.2431 29.3808 45.6131 27.6499 46.5679C25.9267 47.5226 23.8542 48 21.4324 48ZM17.6716 44.2625H21.2228C22.8839 44.2625 24.2694 43.9598 25.3794 43.3543C26.4894 42.7411 27.3238 41.8291 27.8827 40.6182C28.4416 39.3995 28.721 37.8781 28.721 36.054C28.721 34.2299 28.4416 32.7163 27.8827 31.5132C27.3238 30.3023 26.4972 29.398 25.4027 28.8003C24.316 28.1948 22.9654 27.8921 21.3509 27.8921H17.6716V44.2625ZM37.11 48V24.1546H41.4296V34.2493H52.4791V24.1546H56.8104V48H52.4791V37.8704H41.4296V48H37.11Z" fill="black"/>
</svg>
