<svg width="11" height="7" viewBox="0 0 11 7" fill="none" xmlns="http://www.w3.org/2000/svg">
<path d="M5.43209 0.944839L0.982493 5.39452C0.879496 5.49744 0.822754 5.63482 0.822754 5.78131C0.822754 5.9278 0.879496 6.06518 0.982493 6.1681L1.3101 6.49578C1.52357 6.70901 1.87053 6.70901 2.08367 6.49578L5.82018 2.75928L9.56083 6.49993C9.66383 6.60284 9.80113 6.65967 9.94754 6.65967C10.0941 6.65967 10.2314 6.60284 10.3345 6.49993L10.662 6.17224C10.765 6.06924 10.8218 5.93194 10.8218 5.78545C10.8218 5.63896 10.765 5.50158 10.662 5.39867L6.20835 0.944839C6.10503 0.841679 5.96707 0.785019 5.82042 0.785344C5.6732 0.785019 5.53533 0.841679 5.43209 0.944839Z" fill="black"/>
</svg>
