<svg width="63" height="63" viewBox="0 0 63 63" fill="none" xmlns="http://www.w3.org/2000/svg">
<mask id="mask0_637_233" style="mask-type:alpha" maskUnits="userSpaceOnUse" x="0" y="0" width="63" height="63">
<rect width="63" height="63" fill="#D9D9D9"/>
</mask>
<g mask="url(#mask0_637_233)">
<path d="M23.624 47.25H39.374C40.1178 47.25 40.7412 46.9984 41.2443 46.4953C41.7475 45.9922 41.999 45.3688 41.999 44.625C41.999 43.8812 41.7475 43.2578 41.2443 42.7547C40.7412 42.2516 40.1178 42 39.374 42H23.624C22.8803 42 22.2568 42.2516 21.7537 42.7547C21.2506 43.2578 20.999 43.8812 20.999 44.625C20.999 45.3688 21.2506 45.9922 21.7537 46.4953C22.2568 46.9984 22.8803 47.25 23.624 47.25ZM23.624 36.75H39.374C40.1178 36.75 40.7412 36.4984 41.2443 35.9953C41.7475 35.4922 41.999 34.8687 41.999 34.125C41.999 33.3813 41.7475 32.7578 41.2443 32.2547C40.7412 31.7516 40.1178 31.5 39.374 31.5H23.624C22.8803 31.5 22.2568 31.7516 21.7537 32.2547C21.2506 32.7578 20.999 33.3813 20.999 34.125C20.999 34.8687 21.2506 35.4922 21.7537 35.9953C22.2568 36.4984 22.8803 36.75 23.624 36.75ZM15.749 57.75C14.3053 57.75 13.0693 57.2359 12.0412 56.2078C11.0131 55.1797 10.499 53.9437 10.499 52.5V10.5C10.499 9.05625 11.0131 7.82031 12.0412 6.79219C13.0693 5.76406 14.3053 5.25 15.749 5.25H34.5834C35.2834 5.25 35.9506 5.38125 36.585 5.64375C37.2193 5.90625 37.7771 6.27812 38.2584 6.75937L50.9897 19.4906C51.4709 19.9719 51.8428 20.5297 52.1053 21.1641C52.3678 21.7984 52.499 22.4656 52.499 23.1656V52.5C52.499 53.9437 51.985 55.1797 50.9568 56.2078C49.9287 57.2359 48.6928 57.75 47.249 57.75H15.749ZM34.124 21C34.124 21.7437 34.3756 22.3672 34.8787 22.8703C35.3818 23.3734 36.0053 23.625 36.749 23.625H47.249L34.124 10.5V21Z" fill="#43C0FF"/>
</g>
</svg>
