<svg width="25" height="25" viewBox="0 0 25 25" fill="none"  xmlns="http://www.w3.org/2000/svg">
<g clip-path="url(#clip0_29_203)" >
<path d="M12.304 24.1264C18.9307 24.1264 24.3028 18.7543 24.3028 12.1276C24.3028 5.50083 18.9307 0.128784 12.304 0.128784C5.67722 0.128784 0.305176 5.50083 0.305176 12.1276C0.305176 18.7543 5.67722 24.1264 12.304 24.1264Z" fill="#59AF99"/>
<path d="M13.5493 10.6506V9.23351H16.7734V6.99814H7.82588V9.23351H11.0584V10.6506C8.35022 10.7814 6.31763 11.3249 6.31763 11.9704C6.31763 12.616 8.34782 13.1619 11.0584 13.2903V17.9698H13.5493V13.2903C16.2574 13.1607 18.29 12.6172 18.29 11.9704C18.29 11.3237 16.2634 10.7814 13.5493 10.6506ZM12.3038 12.8776C9.37132 12.8776 6.99436 12.424 6.99436 11.878C6.99436 11.4089 8.72579 11.0141 11.056 10.9085V12.5092C11.4567 12.5272 11.8731 12.538 12.3014 12.538C12.7298 12.538 13.1485 12.5272 13.5469 12.5092V10.9085C15.8771 11.0141 17.6085 11.4089 17.6085 11.878C17.6133 12.43 15.2363 12.8776 12.3038 12.8776Z" fill="black"/>
<g clip-path="url(#clip1_29_203)">
<path  d="M23.9424 15.0305C22.3398 21.4585 15.8293 25.3705 9.40057 23.7675C2.97445 22.1649 -0.93755 15.6541 0.665777 9.22642C2.26761 2.79767 8.77811 -1.11471 15.205 0.487873C21.6334 2.09048 25.545 8.6021 23.9424 15.0305Z" fill="#F7931A"/>
<path d="M8.35706 14.1485C8.29182 14.3105 8.12647 14.5535 7.75374 14.4612C7.76689 14.4804 6.79686 14.2224 6.79686 14.2224L6.14331 15.7294L7.85649 16.1565C8.17521 16.2363 8.48757 16.3199 8.79504 16.3987L8.25019 18.5862L9.5652 18.9143L10.1048 16.75C10.4535 16.8445 10.8032 16.9353 11.1539 17.0223L10.6162 19.1764L11.9327 19.5045L12.4775 17.3211C14.7225 17.7459 16.4105 17.5746 17.1211 15.5441C17.6937 13.9093 17.0926 12.9662 15.9115 12.3513C16.7716 12.153 17.4195 11.5871 17.5924 10.4184C17.8312 8.82179 16.6156 7.96349 14.9534 7.39091L15.4926 5.2281L14.1761 4.90001L13.6511 7.00581C13.3051 6.91956 12.9496 6.83819 12.5964 6.75757L13.1251 4.63788L11.8093 4.30978L11.2698 6.47182C10.9833 6.40658 10.7021 6.34206 10.4291 6.27421L10.4306 6.26745L8.61499 5.81412L8.26475 7.22024C8.26475 7.22024 9.24155 7.44409 9.22092 7.45796C9.75413 7.59108 9.85048 7.9439 9.83438 8.22365L8.35706 14.1485ZM14.5845 14.6364C14.1776 16.2712 11.425 15.3874 10.5326 15.1658L11.2555 12.2677C12.1479 12.4904 15.0096 12.9314 14.5845 14.6364ZM14.9917 10.3948C14.6204 11.8819 12.3294 11.1263 11.5862 10.9411L12.2417 8.31259C12.9849 8.49782 15.3783 8.84353 14.9917 10.3948Z" fill="black"/>
</g>
</g>
<defs>
<clipPath id="clip0_29_203">
<rect width="23.9976" height="23.9976" fill="black" transform="translate(0.305176 0.128784)"/>
</clipPath>
<clipPath id="clip1_29_203">
<rect width="23.9976" height="23.9976" fill="black" transform="translate(0.305176 0.128784)"/>
</clipPath>
</defs>
</svg>
