<svg width="64" height="64" viewBox="0 0 64 64" fill="none" xmlns="http://www.w3.org/2000/svg">
<mask id="mask0_637_205" style="mask-type:alpha" maskUnits="userSpaceOnUse" x="0" y="0" width="64" height="64">
<rect width="63.5488" height="63.5488" fill="#D9D9D9"/>
</mask>
<g mask="url(#mask0_637_205)">
<path d="M47.6618 51.436V54.6796C47.6618 55.4298 47.408 56.0587 46.9005 56.5662C46.393 57.0737 45.7641 57.3275 45.0139 57.3275C44.2637 57.3275 43.6348 57.0737 43.1273 56.5662C42.6198 56.0587 42.3661 55.4298 42.3661 54.6796V46.3388C42.3661 45.2355 42.7522 44.2978 43.5245 43.5255C44.2968 42.7532 45.2346 42.367 46.3379 42.367H54.6786C55.4289 42.367 56.0577 42.6208 56.5652 43.1283C57.0728 43.6358 57.3265 44.2647 57.3265 45.0149C57.3265 45.7651 57.0728 46.394 56.5652 46.9015C56.0577 47.409 55.4289 47.6628 54.6786 47.6628H51.3688L57.3265 53.6205C57.8119 54.1059 58.0547 54.7127 58.0547 55.4409C58.0547 56.169 57.8119 56.7979 57.3265 57.3275C56.7969 57.8571 56.1681 58.1218 55.4399 58.1218C54.7117 58.1218 54.0829 57.8571 53.5533 57.3275L47.6618 51.436ZM31.7746 58.2542C28.1117 58.2542 24.6695 57.5592 21.4479 56.169C18.2263 54.7789 15.424 52.8923 13.0409 50.5092C10.6578 48.1261 8.77123 45.3238 7.38109 42.1022C5.99096 38.8807 5.2959 35.4384 5.2959 31.7756C5.2959 28.1127 5.99096 24.6704 7.38109 21.4489C8.77123 18.2273 10.6578 15.425 13.0409 13.0419C15.424 10.6588 18.2263 8.7722 21.4479 7.38207C24.6695 5.99194 28.1117 5.29688 31.7746 5.29688C35.4375 5.29688 38.8797 5.99194 42.1013 7.38207C45.3228 8.7722 48.1252 10.6588 50.5082 13.0419C52.8913 15.425 54.7779 18.2273 56.1681 21.4489C57.5582 24.6704 58.2533 28.1127 58.2533 31.7756C58.2533 32.2169 58.2422 32.7023 58.2202 33.2319C58.1981 33.7615 58.165 34.2469 58.1209 34.6882C58.0326 35.4384 57.7237 36.0232 57.1941 36.4424C56.6645 36.8617 56.0026 37.0713 55.2082 37.0713C54.5021 37.0713 53.9063 36.7624 53.4209 36.1445C52.9355 35.5267 52.7369 34.8647 52.8251 34.1586C52.9134 33.7173 52.9575 33.3201 52.9575 32.9671V31.7756C52.9575 30.8929 52.9024 30.0103 52.792 29.1277C52.6817 28.2451 52.5162 27.3624 52.2956 26.4798H43.2928C43.4252 27.3624 43.5245 28.2451 43.5907 29.1277C43.6569 30.0103 43.69 30.8929 43.69 31.7756V33.1988C43.69 33.7063 43.6679 34.1807 43.6238 34.622C43.5355 35.3722 43.2266 35.968 42.697 36.4093C42.1675 36.8506 41.5276 37.0713 40.7773 37.0713C40.0712 37.0713 39.4644 36.7844 38.9569 36.2107C38.4494 35.637 38.2398 34.9971 38.3281 34.291C38.3722 33.8497 38.3942 33.4305 38.3942 33.0333V31.7756C38.3942 30.8929 38.3611 30.0103 38.295 29.1277C38.2288 28.2451 38.1295 27.3624 37.9971 26.4798H25.5521C25.4197 27.3624 25.3204 28.2451 25.2542 29.1277C25.188 30.0103 25.1549 30.8929 25.1549 31.7756C25.1549 32.6582 25.188 33.5408 25.2542 34.4234C25.3204 35.306 25.4197 36.1887 25.5521 37.0713H31.7746C32.5248 37.0713 33.1537 37.325 33.6612 37.8326C34.1687 38.3401 34.4224 38.9689 34.4224 39.7192C34.4224 40.4694 34.1687 41.0983 33.6612 41.6058C33.1537 42.1133 32.5248 42.367 31.7746 42.367H26.7436C27.2732 44.2647 27.9572 46.0851 28.7957 47.8283C29.6342 49.5714 30.6272 51.2374 31.7746 52.8261C32.2159 52.8261 32.6572 52.8371 33.0985 52.8592C33.5398 52.8813 33.9811 52.8702 34.4224 52.8261C35.1727 52.7378 35.7905 52.9254 36.276 53.3888C36.7614 53.8522 37.0041 54.459 37.0041 55.2092C37.0041 56.0035 36.8055 56.6655 36.4083 57.1951C36.0112 57.7247 35.4375 58.0336 34.6872 58.1218C34.2459 58.166 33.7605 58.1991 33.2309 58.2211C32.7013 58.2432 32.2159 58.2542 31.7746 58.2542ZM11.2536 37.0713H20.2564C20.124 36.1887 20.0247 35.306 19.9585 34.4234C19.8923 33.5408 19.8592 32.6582 19.8592 31.7756C19.8592 30.8929 19.8923 30.0103 19.9585 29.1277C20.0247 28.2451 20.124 27.3624 20.2564 26.4798H11.2536C11.0329 27.3624 10.8675 28.2451 10.7571 29.1277C10.6468 30.0103 10.5916 30.8929 10.5916 31.7756C10.5916 32.6582 10.6468 33.5408 10.7571 34.4234C10.8675 35.306 11.0329 36.1887 11.2536 37.0713ZM24.8901 51.767C24.0958 50.2665 23.4007 48.7329 22.8049 47.1663C22.2092 45.5996 21.7127 43.9999 21.3155 42.367H13.5043C14.7841 44.6177 16.3949 46.5485 18.3366 48.1592C20.2784 49.77 22.4629 50.9726 24.8901 51.767ZM13.5043 21.1841H21.3155C21.7127 19.5512 22.2092 17.9515 22.8049 16.3848C23.4007 14.8182 24.0958 13.2846 24.8901 11.7842C22.4629 12.5785 20.2784 13.7811 18.3366 15.3919C16.3949 17.0027 14.7841 18.9334 13.5043 21.1841ZM26.7436 21.1841H36.8055C36.276 19.2864 35.5919 17.466 34.7534 15.7229C33.9149 13.9797 32.922 12.3137 31.7746 10.725C30.6272 12.3137 29.6342 13.9797 28.7957 15.7229C27.9572 17.466 27.2732 19.2864 26.7436 21.1841ZM42.2337 21.1841H50.0449C48.7651 18.9334 47.1543 17.0027 45.2125 15.3919C43.2707 13.7811 41.0862 12.5785 38.659 11.7842C39.4534 13.2846 40.1485 14.8182 40.7442 16.3848C41.34 17.9515 41.8365 19.5512 42.2337 21.1841Z" fill="#43C0FF"/>
</g>
</svg>
