<svg width="63" height="38" viewBox="0 0 63 38" fill="none" xmlns="http://www.w3.org/2000/svg">
<path fill-rule="evenodd" clip-rule="evenodd" d="M44.7999 1.27394C50.1685 2.51964 52.2222 5.65892 54.7969 9.97979H44.7999V1.27394ZM13.425 10.3426C14.4762 10.3426 15.2391 10.85 15.2391 12.0358C15.2391 13.036 14.4299 13.8471 13.4302 13.8499H2.47037C1.46837 13.8499 0.65625 14.6625 0.65625 15.664C0.65625 16.666 1.46837 17.4782 2.47037 17.4782H18.7975C19.8089 17.4782 20.6187 18.2897 20.6187 19.2923C20.6187 20.2943 19.8066 21.1064 18.8046 21.1064H2.47037C1.46837 21.1064 0.65625 21.9185 0.65625 22.9205C0.65625 23.9225 1.46837 24.7347 2.47037 24.7347H6.46144V30.177C6.46144 31.179 7.27356 31.9911 8.27556 31.9911H11.9222C12.5723 35.1933 15.4017 37.5545 18.737 37.5545C22.0723 37.5545 24.9018 35.1933 25.5518 31.9911H43.9717C44.6218 35.1933 47.4512 37.5545 50.7865 37.5545C54.1218 37.5545 56.9513 35.1933 57.6013 31.9911H60.7642C61.7662 31.9911 62.5783 31.179 62.5783 30.177V19.2923C62.5783 13.9694 56.964 13.616 56.9588 13.608H42.9858C41.9838 13.608 41.1717 12.7959 41.1717 11.7939V0.90918H8.27556C7.27356 0.90918 6.46144 1.7213 6.46144 2.7233V6.71437H4.2845C3.28249 6.71437 2.47037 7.52649 2.47037 8.52849C2.47037 9.5305 3.28249 10.3426 4.2845 10.3426H13.425ZM53.1382 28.2486C54.437 29.5473 54.437 31.6538 53.1382 32.9525C51.0492 35.0417 47.4606 33.5554 47.4606 30.6003C47.4606 27.6457 51.0492 26.1595 53.1382 28.2486ZM21.0887 28.2486C22.3875 29.5473 22.3875 31.6538 21.0887 32.9525C18.9997 35.0417 15.4111 33.5554 15.4111 30.6003C15.4111 27.6457 18.9997 26.1595 21.0887 28.2486Z" fill="#404040"/>
</svg>
