<svg width="50" height="50" viewBox="0 0 50 50" fill="none" xmlns="http://www.w3.org/2000/svg">
<path d="M25 0.5C11.49 0.5 0.5 11.49 0.5 25C0.5 38.51 11.49 49.5 25 49.5C38.51 49.5 49.5 38.51 49.5 25C49.5 11.49 38.51 0.5 25 0.5ZM25 42.5C15.3575 42.5 7.5 34.6425 7.5 25C7.5 15.3575 15.3575 7.5 25 7.5C34.6425 7.5 42.5 15.3575 42.5 25C42.5 34.6425 34.6425 42.5 25 42.5Z" fill="#333333"/>
<path d="M25 11C17.2825 11 11 17.2825 11 25C11 32.7175 17.2825 39 25 39C32.7175 39 39 32.7175 39 25C39 17.2825 32.7175 11 25 11ZM32.42 27.2225L30.4075 28.325C29.5325 28.7975 28.815 29.515 28.325 30.4075L27.2225 32.42C26.7675 33.225 25.9275 33.7325 25 33.7325C24.0725 33.7325 23.2325 33.225 22.7775 32.42L21.675 30.4075C21.185 29.515 20.4675 28.7975 19.5925 28.325L17.58 27.2225C16.7575 26.785 16.25 25.9275 16.25 25C16.25 24.0725 16.7575 23.215 17.58 22.7775L19.5925 21.675C20.4675 21.2025 21.185 20.485 21.675 19.5925L22.7775 17.58C23.2325 16.775 24.0725 16.2675 25 16.2675C25.9275 16.2675 26.7675 16.775 27.2225 17.58L28.325 19.5925C28.815 20.4675 29.5325 21.2025 30.4075 21.675L32.42 22.7775C33.2425 23.215 33.75 24.0725 33.75 25C33.75 25.9275 33.2425 26.785 32.42 27.2225Z" fill="#333333"/>
</svg>
