<svg width="25" height="25" viewBox="0 0 25 25" fill="none" xmlns="http://www.w3.org/2000/svg">
<path d="M12.304 24.4469C18.9307 24.4469 24.3028 19.0749 24.3028 12.4481C24.3028 5.82136 18.9307 0.44931 12.304 0.44931C5.67722 0.44931 0.305176 5.82136 0.305176 12.4481C0.305176 19.0749 5.67722 24.4469 12.304 24.4469Z" fill="#C4A939"/>
<path d="M13.9837 6.98868H7.4624V9.46523H8.93346V15.431H7.4624V17.9076H13.9837C16.3139 17.9076 18.2037 15.4634 18.2037 12.4481C18.2037 9.43283 16.3187 6.98868 13.9837 6.98868ZM12.8307 15.431H11.9871V9.46523H12.8355C13.961 9.46523 14.8753 10.7995 14.8753 12.4481C14.8753 14.0968 13.961 15.431 12.8355 15.431H12.8307Z" fill="black"/>
</svg>
