<svg width="47" height="47" viewBox="0 0 47 47" fill="none" xmlns="http://www.w3.org/2000/svg">
<path d="M45.3165 20.8209L45.3134 20.8177L26.6268 2.13187C25.8302 1.33485 24.7712 0.895996 23.6449 0.895996C22.5184 0.895996 21.4595 1.33459 20.6626 2.13151L1.98569 20.8079C1.97943 20.8142 1.97316 20.8208 1.9669 20.8271C0.331181 22.4722 0.334044 25.1413 1.97495 26.7822C2.72455 27.5322 3.71473 27.9666 4.77336 28.0121C4.8163 28.0163 4.8597 28.0183 4.90336 28.0183H5.64812V41.7701C5.64812 44.4914 7.86218 46.7055 10.5841 46.7055H17.8948C18.6358 46.7055 19.2369 46.1047 19.2369 45.3634V34.5821C19.2369 33.3403 20.247 32.3302 21.4888 32.3302H25.8009C27.0427 32.3302 28.0527 33.3404 28.0527 34.5821V45.3634C28.0527 46.1047 28.6535 46.7055 29.3948 46.7055H36.7056C39.4275 46.7055 41.6416 44.4914 41.6416 41.7702V28.0184H42.3322C43.4583 28.0184 44.5173 27.5798 45.3145 26.783C46.9572 25.1393 46.9578 22.4656 45.3165 20.8209Z" fill="#404040"/>
</svg>
