<svg width="13" height="13" viewBox="0 0 13 13" fill="none" xmlns="http://www.w3.org/2000/svg">
<g clip-path="url(#clip0_87_110)">
<path d="M11.2282 3.33666H1.47826C1.27935 3.33666 1.08859 3.25764 0.947939 3.11699C0.807288 2.97634 0.728271 2.78557 0.728271 2.58666C0.728271 2.38775 0.807288 2.19699 0.947939 2.05634C1.08859 1.91569 1.27935 1.83667 1.47826 1.83667H11.2282C11.4271 1.83667 11.6178 1.91569 11.7585 2.05634C11.8991 2.19699 11.9782 2.38775 11.9782 2.58666C11.9782 2.78557 11.8991 2.97634 11.7585 3.11699C11.6178 3.25764 11.4271 3.33666 11.2282 3.33666ZM11.2282 10.8366H1.47826C1.27935 10.8366 1.08859 10.7576 0.947939 10.6169C0.807288 10.4763 0.728271 10.2855 0.728271 10.0866C0.728271 9.88768 0.807288 9.69691 0.947939 9.55626C1.08859 9.41561 1.27935 9.3366 1.47826 9.3366H11.2282C11.4271 9.3366 11.6178 9.41561 11.7585 9.55626C11.8991 9.69691 11.9782 9.88768 11.9782 10.0866C11.9782 10.2855 11.8991 10.4763 11.7585 10.6169C11.6178 10.7576 11.4271 10.8366 11.2282 10.8366ZM11.2282 7.08662H1.47826C1.27935 7.08662 1.08859 7.0076 0.947939 6.86695C0.807288 6.7263 0.728271 6.53554 0.728271 6.33663C0.728271 6.13771 0.807288 5.94695 0.947939 5.8063C1.08859 5.66565 1.27935 5.58663 1.47826 5.58663H11.2282C11.4271 5.58663 11.6178 5.66565 11.7585 5.8063C11.8991 5.94695 11.9782 6.13771 11.9782 6.33663C11.9782 6.53554 11.8991 6.7263 11.7585 6.86695C11.6178 7.0076 11.4271 7.08662 11.2282 7.08662Z" fill="black"/>
</g>
<defs>
<clipPath id="clip0_87_110">
<rect width="11.9999" height="11.9999" fill="black" transform="translate(0.353271 0.33667)"/>
</clipPath>
</defs>
</svg>
