<svg width="72" height="72" viewBox="0 0 72 72" fill="none" xmlns="http://www.w3.org/2000/svg">
<path d="M32.0999 55.4999L34.3749 36.6499L20.3999 24.9499L32.0999 55.4999ZM45.4249 24.2999L21.6999 22.0249L35.9999 33.7249L45.4249 24.2999ZM35.0249 57.1249L54.5249 35.0249L37.6249 37.6249L35.0249 57.1249Z" fill="#FF0013"/>
<path d="M36 0.25C16.175 0.25 0.25 16.175 0.25 36C0.25 55.825 16.175 71.75 36 71.75C55.825 71.75 71.75 55.825 71.75 36C71.75 16.175 55.825 0.25 36 0.25ZM32.1 65.25L13.9 17.8L49.65 21.375L61.025 32.75L32.1 65.25Z" fill="#FF0013"/>
<path d="M40.5498 33.7249L55.1748 31.7749L48.9998 25.2749L40.5498 33.7249Z" fill="#FF0013"/>
</svg>
