<svg width="25" height="25" viewBox="0 0 25 25" fill="none" xmlns="http://www.w3.org/2000/svg">
<path d="M12.304 24.1296C18.9307 24.1296 24.3028 18.7576 24.3028 12.1308C24.3028 5.50407 18.9307 0.132019 12.304 0.132019C5.67722 0.132019 0.305176 5.50407 0.305176 12.1308C0.305176 18.7576 5.67722 24.1296 12.304 24.1296Z" fill="#59AF99"/>
<path d="M13.5493 10.6538V9.23672H16.7734V7.00134H7.82588V9.23672H11.0584V10.6538C8.35022 10.7846 6.31763 11.3281 6.31763 11.9736C6.31763 12.6192 8.34782 13.1651 11.0584 13.2935V17.973H13.5493V13.2935C16.2574 13.1639 18.29 12.6204 18.29 11.9736C18.29 11.3269 16.2634 10.7846 13.5493 10.6538ZM12.3038 12.8808C9.37132 12.8808 6.99436 12.4272 6.99436 11.8813C6.99436 11.4121 8.72579 11.0173 11.056 10.9118V12.5124C11.4567 12.5304 11.8731 12.5412 12.3014 12.5412C12.7298 12.5412 13.1485 12.5304 13.5469 12.5124V10.9118C15.8771 11.0173 17.6085 11.4121 17.6085 11.8813C17.6133 12.4332 15.2363 12.8808 12.3038 12.8808Z" fill="black"/>
</svg>
