<svg width="7" height="11" viewBox="0 0 7 11" fill="none" xmlns="http://www.w3.org/2000/svg">
<path d="M5.23584 9.6062C5.22847 9.6062 5.22169 9.6055 5.21631 9.60327L5.20264 9.59351L5.20264 9.59253L0.752442 5.14331C0.748407 5.13924 0.744897 5.13491 0.742676 5.12964L0.739747 5.11011L0.739747 5.10718C0.739756 5.10006 0.740514 5.09397 0.742676 5.08862L0.752442 5.07397L5.20654 0.62085L5.20654 0.619873C5.21499 0.611539 5.2252 0.607178 5.23975 0.607178C5.24686 0.607197 5.25301 0.607955 5.2583 0.610107L5.27295 0.62085L5.6001 0.947998C5.60903 0.956977 5.61373 0.966851 5.61377 0.981201C5.61377 0.988164 5.61297 0.994444 5.61084 0.999756L5.6001 1.0144L1.85986 4.75561L1.50635 5.10913L5.59619 9.19897C5.60511 9.20789 5.60991 9.21996 5.60986 9.23218L5.59619 9.26538L5.26807 9.59351C5.25974 9.60165 5.25005 9.60611 5.23584 9.6062Z" fill="black"/>
<path d="M5.23584 9.6062C5.22847 9.6062 5.22169 9.6055 5.21631 9.60327L5.20264 9.59351L5.20264 9.59253L0.752442 5.14331C0.748407 5.13924 0.744897 5.13491 0.742676 5.12964L0.739747 5.11011L0.739747 5.10718C0.739756 5.10006 0.740514 5.09397 0.742676 5.08862L0.752442 5.07397L5.20654 0.62085L5.20654 0.619873C5.21499 0.611539 5.2252 0.607178 5.23975 0.607178C5.24686 0.607197 5.25301 0.607955 5.2583 0.610107L5.27295 0.62085L5.6001 0.947998C5.60903 0.956977 5.61373 0.966851 5.61377 0.981201C5.61377 0.988164 5.61297 0.994444 5.61084 0.999756L5.6001 1.0144L1.85986 4.75561L1.50635 5.10913L5.59619 9.19897C5.60511 9.20789 5.60991 9.21996 5.60986 9.23218L5.59619 9.26538L5.26807 9.59351C5.25974 9.60165 5.25005 9.60611 5.23584 9.6062Z" stroke="black"/>
<path d="M5.23584 9.6062C5.22847 9.6062 5.22169 9.6055 5.21631 9.60327L5.20264 9.59351L5.20264 9.59253L0.752442 5.14331C0.748407 5.13924 0.744897 5.13491 0.742676 5.12964L0.739747 5.11011L0.739747 5.10718C0.739756 5.10006 0.740514 5.09397 0.742676 5.08862L0.752442 5.07397L5.20654 0.62085L5.20654 0.619873C5.21499 0.611539 5.2252 0.607178 5.23975 0.607178C5.24686 0.607197 5.25301 0.607955 5.2583 0.610107L5.27295 0.62085L5.6001 0.947998C5.60903 0.956977 5.61373 0.966851 5.61377 0.981201C5.61377 0.988164 5.61297 0.994444 5.61084 0.999756L5.6001 1.0144L1.85986 4.75561L1.50635 5.10913L5.59619 9.19897C5.60511 9.20789 5.60991 9.21996 5.60986 9.23218L5.59619 9.26538L5.26807 9.59351C5.25974 9.60165 5.25005 9.60611 5.23584 9.6062Z" stroke="black" stroke-opacity="0.2"/>
</svg>
