<svg width="94" height="94" viewBox="0 0 94 94" fill="none" xmlns="http://www.w3.org/2000/svg">
<path d="M82.6163 41.8337C85.4715 61.5038 71.8394 79.7652 52.1667 82.6202C32.5018 85.4733 14.2399 71.8401 11.3872 52.1701C8.52911 32.4988 22.1608 14.2362 41.8279 11.3823C61.499 8.52682 79.7607 22.1625 82.6163 41.8337Z" fill="#59AF99"/>
<path d="M38.3376 57.097C38.3405 57.621 38.1575 58.4835 37.0177 58.651C37.076 58.6892 34.0892 59.0752 34.0892 59.0752L33.9871 64.0024L39.2296 63.2414C40.2053 63.101 41.1677 62.9781 42.1109 62.8474L43.0841 69.5408L47.1084 68.9574L46.147 62.3345C47.2227 62.2006 48.297 62.0551 49.3695 61.8981L50.3246 68.4907L54.3531 67.9056L53.3845 61.2236C60.1009 59.852 64.5935 57.4578 64.259 51.0123C63.991 45.8222 61.2503 43.8866 57.2717 43.5214C59.4348 41.993 60.5908 39.6856 59.7426 36.2438C58.5913 31.5391 54.2404 30.5373 48.9742 30.8364L48.0134 24.2181L43.9849 24.8032L44.9205 31.247C43.8615 31.4009 42.7819 31.5789 41.7096 31.7564L40.7687 25.2698L36.7423 25.854L37.7011 32.4707C36.8315 32.6151 35.9774 32.7555 35.1422 32.8773L35.1387 32.8569L29.5821 33.6614L30.2075 37.9639C30.2075 37.9639 33.1743 37.4754 33.1327 37.5373C34.7646 37.301 35.4331 38.1712 35.7063 38.9663L38.3376 57.097ZM56.1838 51.3744C56.912 56.3762 48.2644 57.0504 45.5345 57.4493L44.2484 48.5805C46.9795 48.1847 55.4268 46.1569 56.1838 51.3744ZM52.4941 39.1339C53.1534 43.6851 45.9332 44.1908 43.6591 44.521L42.4918 36.4774C44.7659 36.1472 51.8047 34.3872 52.4941 39.1339Z" fill="black"/>
</svg>
