<svg width="17" height="18" viewBox="0 0 17 18" fill="none" xmlns="http://www.w3.org/2000/svg">
<g clip-path="url(#clip0_47_61)">
<path d="M16.4186 5.94368V5.02971C16.4186 3.98277 15.6189 3.13406 14.6323 3.13406H1.87319C0.886657 3.13406 0.0869141 3.98277 0.0869141 5.02971V5.94368C0.0869141 5.98857 0.103717 6.03162 0.133627 6.06336C0.163537 6.0951 0.204104 6.11293 0.246403 6.11293H16.2591C16.3014 6.11293 16.342 6.0951 16.3719 6.06336C16.4018 6.03162 16.4186 5.98857 16.4186 5.94368ZM0.0869141 7.36541V13.1539C0.0869141 14.2008 0.886657 15.0495 1.87319 15.0495H14.6323C15.6189 15.0495 16.4186 14.2008 16.4186 13.1539V7.36541C16.4186 7.32052 16.4018 7.27747 16.3719 7.24573C16.342 7.21399 16.3014 7.19616 16.2591 7.19616H0.246403C0.204104 7.19616 0.163537 7.21399 0.133627 7.24573C0.103717 7.27747 0.0869141 7.32052 0.0869141 7.36541ZM4.16984 11.7999C4.16984 12.099 3.94132 12.3415 3.65947 12.3415H3.14911C2.86726 12.3415 2.63874 12.099 2.63874 11.7999V11.2583C2.63874 10.9591 2.86726 10.7166 3.14911 10.7166H3.65947C3.94132 10.7166 4.16984 10.9591 4.16984 11.2583V11.7999Z" fill="#333333"/>
</g>
<defs>
<clipPath id="clip0_47_61">
<rect width="16.3317" height="17.3316" fill="black" transform="translate(0.0869141 0.425995)"/>
</clipPath>
</defs>
</svg>
