<svg width="31" height="30" viewBox="0 0 31 30" fill="none" xmlns="http://www.w3.org/2000/svg">
<g clip-path="url(#clip0_66_24)">
<path d="M21.1823 17.6465L16.9999 14.5097V8.11999C16.9999 7.47751 16.4805 6.95819 15.8381 6.95819C15.1956 6.95819 14.6763 7.47751 14.6763 8.11999V15.0907C14.6763 15.4566 14.8482 15.8017 15.141 16.0201L19.7881 19.5054C19.9886 19.6565 20.2329 19.738 20.484 19.7378C20.8383 19.7378 21.1868 19.5786 21.4146 19.2719C21.8004 18.7595 21.6958 18.0311 21.1823 17.6465Z" fill="#333333"/>
<path d="M15.8383 -0.000793457C7.56767 -0.000793457 0.839844 6.72703 0.839844 14.9977C0.839844 23.2684 7.56767 29.9962 15.8383 29.9962C24.109 29.9962 30.8368 23.2684 30.8368 14.9977C30.8368 6.72703 24.109 -0.000793457 15.8383 -0.000793457ZM15.8383 27.6727C8.85027 27.6727 3.16338 21.9858 3.16338 14.9977C3.16338 8.00964 8.85027 2.32274 15.8383 2.32274C22.8276 2.32274 28.5133 8.00964 28.5133 14.9977C28.5133 21.9858 22.8264 27.6727 15.8383 27.6727Z" fill="#333333"/>
</g>
<defs>
<clipPath id="clip0_66_24">
<rect width="29.997" height="29.997" fill="black" transform="translate(0.839844 -0.000793457)"/>
</clipPath>
</defs>
</svg>
