<svg width="78" height="78" viewBox="0 0 78 78" fill="none" xmlns="http://www.w3.org/2000/svg">
<path d="M39 3.25C19.175 3.25 3.25 19.175 3.25 39C3.25 58.825 19.175 74.75 39 74.75C58.825 74.75 74.75 58.825 74.75 39C74.75 19.175 58.825 3.25 39 3.25ZM15.6 26.975C17.875 22.75 21.775 20.475 24.7 21.775C27.625 23.4 28.275 27.95 26 32.5C23.725 36.725 19.825 39 16.9 37.7C13.975 36.075 13.325 31.525 15.6 26.975ZM26.325 57.525C23.725 59.15 19.175 57.2 16.575 53.3C13.975 49.075 13.975 44.525 16.9 42.9C19.5 41.275 24.05 43.225 26.65 47.125C29.25 51.025 29.25 55.575 26.325 57.525ZM39 65.325C34.125 65.325 30.225 62.725 30.225 59.475C30.225 56.225 34.125 53.625 39 53.625C43.875 53.625 47.775 56.225 47.775 59.475C47.775 62.725 43.875 65.325 39 65.325ZM39 24.375C34.125 24.375 30.225 21.775 30.225 18.525C30.225 15.275 34.125 12.675 39 12.675C43.875 12.675 47.775 15.275 47.775 18.525C47.775 21.775 43.875 24.375 39 24.375ZM52 21.125C54.925 19.5 59.15 21.45 61.75 25.675C64.35 29.9 64.025 34.45 61.1 36.075C58.175 37.7 53.95 35.75 51.675 31.525C49.075 27.3 49.4 22.75 52 21.125ZM62.075 51.675C59.8 55.9 55.575 58.175 52.65 56.55C49.725 54.925 49.4 50.375 51.675 46.15C53.95 41.925 58.175 39.65 61.1 41.275C64.025 42.9 64.35 47.45 62.075 51.675Z" fill="#E6007A"/>
</svg>
