<svg width="72" height="72" viewBox="0 0 72 72" fill="none" xmlns="http://www.w3.org/2000/svg">
<g clip-path="url(#clip0_115_163)">
<path d="M36 72C55.8823 72 72 55.8823 72 36C72 16.1178 55.8823 0 36 0C16.1178 0 0 16.1178 0 36C0 55.8823 16.1178 72 36 72Z" fill="#59AF99"/>
<path d="M39.7367 31.5685V27.3169H49.4099V20.6101H22.5648V27.3169H32.2632V31.5685C24.138 31.9609 18.0396 33.5917 18.0396 35.5285C18.0396 37.4653 24.1308 39.1033 32.2632 39.4885V53.5285H39.7367V39.4885C47.8619 39.0997 53.9604 37.4689 53.9604 35.5285C53.9604 33.5881 47.8799 31.9609 39.7367 31.5685ZM36 38.2501C27.2015 38.2501 20.07 36.8893 20.07 35.2513C20.07 33.8437 25.2647 32.6593 32.2559 32.3425V37.1449C33.4583 37.1989 34.7076 37.2313 35.9928 37.2313C37.278 37.2313 38.5343 37.1989 39.7295 37.1449V32.3425C46.7207 32.6593 51.9156 33.8437 51.9156 35.2513C51.93 36.9073 44.7983 38.2501 36 38.2501Z" fill="black"/>
<g clip-path="url(#clip1_115_163)">
<path d="M36 72C55.8823 72 72 55.8823 72 36C72 16.1178 55.8823 0 36 0C16.1178 0 0 16.1178 0 36C0 55.8823 16.1178 72 36 72Z" fill="#2B53B7"/>
<path d="M49.7915 43.8013V43.9525L48.6323 48.0745C48.5634 48.2791 48.43 48.456 48.2522 48.5786C48.0745 48.7012 47.8618 48.7631 47.646 48.7549L23.8859 49.8961L27.3383 37.9153L22.9355 39.2833L23.8283 36.5509L28.2239 35.1649L33.0839 18.3601C33.1526 18.1514 33.2852 17.9696 33.4628 17.8404C33.6405 17.7112 33.8543 17.6411 34.0739 17.6401L40.0139 17.3737C40.2101 17.3465 40.4092 17.3967 40.5691 17.5136C40.7289 17.6304 40.8371 17.8049 40.8707 18.0001V18.2305L36.8243 32.4289L41.2307 31.0429L40.4135 33.9229L35.9315 35.2405L33.4115 43.9525L48.9239 43.2685C49.1092 43.2298 49.3023 43.2634 49.4636 43.3625C49.6249 43.4615 49.7422 43.6185 49.7915 43.8013Z" fill="black"/>
<g clip-path="url(#clip2_115_163)">
<path d="M70.875 44.7075C69.1595 51.6226 65.4307 57.8733 60.1607 62.6679C54.8907 67.4626 48.3164 70.5857 41.2704 71.6419C34.2243 72.698 27.0234 71.6396 20.5792 68.6007C14.135 65.5618 8.73748 60.6791 5.06997 54.5708C1.40246 48.4625 -0.370079 41.4032 -0.023219 34.2869C0.323641 27.1706 2.7743 20.3173 7.01847 14.5946C11.2626 8.87189 17.1095 4.53725 23.8186 2.13948C30.5278 -0.258295 37.7976 -0.611361 44.7075 1.12498C53.9492 3.44725 61.8931 9.33881 66.7982 17.5083C71.7033 25.6779 73.1693 35.4589 70.875 44.7075Z" fill="#0B8311"/>
<path d="M64.3612 43.0763C62.9627 48.6905 59.9305 53.7639 55.6483 57.6547C51.3661 61.5455 46.0262 64.0789 40.304 64.9345C34.5818 65.7901 28.7344 64.9295 23.5014 62.4614C18.2684 59.9934 13.8848 56.0288 10.9053 51.0691C7.92573 46.1095 6.48399 40.3776 6.76241 34.5985C7.04084 28.8194 9.02693 23.2527 12.4695 18.6025C15.912 13.9522 20.6563 10.4274 26.1024 8.47387C31.5484 6.52031 37.4515 6.22577 43.0649 7.6275C50.5886 9.50623 57.0583 14.2957 61.0518 20.9431C65.0452 27.5904 66.2356 35.5515 64.3612 43.0763Z" fill="#0B8311"/>
<path d="M22.5 37.4175L36.1125 44.6625L49.6125 37.4175C44.7187 44.685 40.6125 50.7262 36.1125 57.42C31.5675 50.7375 26.5387 43.38 22.5 37.4175ZM23.0175 35.415L36.1238 28.4175L49.0613 35.37L36.135 42.3675L23.0175 35.415ZM36.1125 26.1788L22.5 33.345L36.0562 13.5L49.6125 33.39L36.1125 26.1788Z" fill="#F0F0F0"/>
<path d="M36.1124 44.6625L49.6124 37.4175C44.7187 44.685 36.1124 57.375 36.1124 57.375V44.6625ZM36.1124 28.4175L49.0499 35.37L36.1349 42.3675L36.1124 28.4175ZM36.1124 26.1675L36.0562 13.5L49.6124 33.39L36.1124 26.1675Z" fill="#E1E1E1"/>
<path d="M23.0176 35.415L36.1238 36.54L49.0613 35.415L36.1351 42.3788L23.0176 35.415Z" fill="#E1E1E1"/>
<path d="M36.124 36.4951L49.0615 35.3701L36.1353 42.3789L36.124 36.4951Z" fill="#E1E1E1"/>
</g>
</g>
</g>
<defs>
<clipPath id="clip0_115_163">
<rect width="72" height="72" fill="black"/>
</clipPath>
<clipPath id="clip1_115_163">
<rect width="72" height="72" fill="black"/>
</clipPath>
<clipPath id="clip2_115_163">
<rect width="72" height="72" fill="black"/>
</clipPath>
</defs>
</svg>
