<svg width="72" height="72" viewBox="0 0 72 72" fill="none" xmlns="http://www.w3.org/2000/svg">
<circle cx="36" cy="36" r="36" fill="#9945FE"/>
<path d="M43.6023 31.2102L41.9489 34.8409H19.3295L20.6761 31.2102H43.6023ZM40.4489 38.25L38.6932 41.9318H19.3295L20.6761 38.25H40.4489ZM47.8977 21.9205L45.5114 27C44.9659 26.5682 44.3466 26.1477 43.6534 25.7386C42.9602 25.3295 42.1932 24.9886 41.3523 24.7159C40.5114 24.4432 39.5909 24.3068 38.5909 24.3068C36.8977 24.3068 35.4034 24.7557 34.108 25.6534C32.8125 26.5398 31.7955 27.892 31.0568 29.7102C30.3295 31.517 29.9659 33.8068 29.9659 36.5795C29.9659 39.3523 30.3295 41.642 31.0568 43.4489C31.7955 45.2557 32.8125 46.5966 34.108 47.4716C35.4034 48.3466 36.8977 48.7841 38.5909 48.7841C39.5909 48.7841 40.5114 48.6534 41.3523 48.392C42.1932 48.1307 42.9489 47.8011 43.6193 47.4034C44.3011 47.0057 44.8864 46.608 45.375 46.2102L47.7955 51.2898C46.5795 52.3466 45.1761 53.142 43.5852 53.6761C42.0057 54.2102 40.3409 54.4773 38.5909 54.4773C35.6818 54.4773 33.1023 53.767 30.8523 52.3466C28.6136 50.9148 26.858 48.8636 25.5852 46.1932C24.3125 43.5114 23.6761 40.3068 23.6761 36.5795C23.6761 32.8409 24.3125 29.6307 25.5852 26.9489C26.858 24.267 28.6136 22.2102 30.8523 20.7784C33.1023 19.3352 35.6818 18.6136 38.5909 18.6136C40.4091 18.6136 42.0966 18.9034 43.6534 19.483C45.2216 20.0511 46.6364 20.8636 47.8977 21.9205Z" fill="black"/>
</svg>
