<svg width="14" height="13" viewBox="0 0 14 13" fill="none" xmlns="http://www.w3.org/2000/svg">
<path d="M12.6973 5.39013C12.6422 5.38118 12.5863 5.37705 12.5305 5.37777H3.01712L3.22456 5.28129C3.42733 5.18531 3.6118 5.05471 3.7697 4.89535L6.43747 2.22757C6.78883 1.89217 6.84786 1.35262 6.57738 0.949162C6.26257 0.519236 5.65885 0.425888 5.22889 0.740697C5.19415 0.766141 5.16115 0.793882 5.13012 0.823733L0.305926 5.64793C-0.0710847 6.02451 -0.0714164 6.63541 0.305172 7.01242L0.305926 7.01317L5.13012 11.8374C5.50743 12.2136 6.11832 12.2128 6.49461 11.8355C6.52422 11.8058 6.55187 11.7742 6.57738 11.7409C6.84786 11.3374 6.78883 10.7979 6.43747 10.4625L3.77452 7.78987C3.63297 7.64815 3.47021 7.52934 3.2921 7.4377L3.00265 7.30745H12.4774C12.9702 7.32575 13.4027 6.98145 13.4953 6.49698C13.5806 5.971 13.2233 5.47546 12.6973 5.39013Z" fill="black"/>
</svg>
