<svg width="25" height="25" viewBox="0 0 25 25" fill="none" xmlns="http://www.w3.org/2000/svg">
<path d="M12.304 24.4501C18.9307 24.4501 24.3028 19.0781 24.3028 12.4513C24.3028 5.82456 18.9307 0.452515 12.304 0.452515C5.67722 0.452515 0.305176 5.82456 0.305176 12.4513C0.305176 19.0781 5.67722 24.4501 12.304 24.4501Z" fill="#2B53B7"/>
<path d="M16.9006 15.0515V15.1019L16.5142 16.4757C16.4912 16.5439 16.4468 16.6029 16.3875 16.6438C16.3283 16.6846 16.2574 16.7052 16.1854 16.7025L8.26623 17.0829L9.41692 13.0897L7.94946 13.5456L8.24703 12.6349L9.71209 12.173L11.3319 6.57193C11.3548 6.50238 11.399 6.44179 11.4582 6.39873C11.5174 6.35566 11.5887 6.3323 11.6619 6.33195L13.6417 6.24316C13.7071 6.2341 13.7734 6.25082 13.8267 6.28978C13.88 6.32874 13.9161 6.38689 13.9273 6.45194V6.52873L12.5786 11.2611L14.0473 10.7991L13.7749 11.759L12.281 12.1982L11.4411 15.1019L16.6114 14.8739C16.6732 14.861 16.7375 14.8722 16.7913 14.9052C16.845 14.9382 16.8841 14.9906 16.9006 15.0515Z" fill="black"/>
</svg>
