<svg width="16" height="17" viewBox="0 0 16 17" fill="none" xmlns="http://www.w3.org/2000/svg">
<path d="M7.9589 0.557159C5.57843 0.557159 3.64176 2.49383 3.64176 4.8743C3.64176 7.25477 5.57843 9.19144 7.9589 9.19144C10.3394 9.19144 12.276 7.25477 12.276 4.8743C12.276 2.49383 10.3394 0.557159 7.9589 0.557159ZM13.3303 12.0118C12.1483 10.8117 10.5815 10.1508 8.91827 10.1508H6.99954C5.33639 10.1508 3.76949 10.8117 2.58755 12.0118C1.4114 13.206 0.763672 14.7824 0.763672 16.4506C0.763672 16.7155 0.978442 16.9303 1.24335 16.9303H14.6745C14.9394 16.9303 15.1541 16.7155 15.1541 16.4506C15.1541 14.7824 14.5064 13.206 13.3303 12.0118Z" fill="white"/>
</svg>
