<svg width="52" height="52" viewBox="0 0 52 52" fill="none" xmlns="http://www.w3.org/2000/svg">
<g clip-path="url(#clip0_293_1072)">
<path d="M26 4C14.4206 4 5 13.4207 5 25.0001C5 36.5795 14.4206 46 26 46C37.5794 46 47 36.5795 47 25.0001C47 13.4207 37.5794 4 26 4ZM26 42.1818C16.5258 42.1818 8.81818 34.4742 8.81818 25.0001C8.81818 15.5261 16.5258 7.81818 26 7.81818C35.4742 7.81818 43.1818 15.5261 43.1818 25.0001C43.1818 34.4742 35.4741 42.1818 26 42.1818Z" fill="#333333"/>
</g>
<path d="M25.2306 32.8985C23.7932 32.8985 22.6296 34.0964 22.6296 35.5337C22.6296 36.937 23.759 38.169 25.2306 38.169C26.7023 38.169 27.8658 36.937 27.8658 35.5337C27.8658 34.0964 26.6679 32.8985 25.2306 32.8985ZM25.6755 12.9461C21.0552 12.9461 18.9333 15.6841 18.9333 17.5321C18.9333 18.8669 20.0627 19.4829 20.9867 19.4829C22.8349 19.4829 22.082 16.8476 25.5728 16.8476C27.2839 16.8476 28.653 17.6006 28.653 19.1749C28.653 21.0229 26.7364 22.0839 25.607 23.0421C24.6145 23.8976 23.314 25.3009 23.314 28.2441C23.314 30.0237 23.7932 30.5371 25.1963 30.5371C26.8732 30.5371 27.2155 29.7842 27.2155 29.1338C27.2155 27.3542 27.2497 26.3275 29.1321 24.8559C30.0561 24.1372 32.965 21.8099 32.965 18.593C32.965 15.376 30.0561 12.9461 25.6755 12.9461Z" fill="#333333"/>
<defs>
<clipPath id="clip0_293_1072">
<rect width="42" height="42" fill="white" transform="translate(5 4)"/>
</clipPath>
</defs>
</svg>
