<svg width="17" height="17" viewBox="0 0 17 17" fill="none" xmlns="http://www.w3.org/2000/svg">
<path d="M13.7463 9.10406C13.6596 9.09049 13.5711 9.09434 13.4859 9.11539C13.4007 9.13644 13.3206 9.17427 13.2502 9.22666C13.1798 9.27906 13.1206 9.34496 13.0759 9.42052C13.0313 9.49608 13.0022 9.57978 12.9903 9.66672C12.8557 10.5817 12.4276 11.4281 11.7704 12.0787C10.9572 12.8903 9.85526 13.3461 8.70638 13.3461C7.55751 13.3461 6.45557 12.8903 5.64241 12.0787C4.83099 11.2655 4.37528 10.1635 4.37528 9.01473C4.37528 7.86591 4.83099 6.764 5.64241 5.95076C6.27574 5.31575 7.09271 4.89596 7.97772 4.75077C8.38423 4.67691 8.79953 4.66455 9.20971 4.7141C9.78966 4.78388 10.3492 4.97174 10.8537 5.2661L9.9857 5.41476C9.89836 5.42839 9.81461 5.45924 9.7393 5.50553C9.664 5.55183 9.59865 5.61263 9.54707 5.68442C9.49548 5.7562 9.45868 5.83752 9.43882 5.92366C9.41896 6.00979 9.41642 6.09902 9.43136 6.18614C9.4463 6.27326 9.47842 6.35655 9.52585 6.43114C9.57328 6.50574 9.63506 6.57016 9.70762 6.62065C9.78017 6.67115 9.86204 6.70671 9.94847 6.72526C10.0349 6.74382 10.1241 6.74501 10.211 6.72875L12.5377 6.33142C12.7118 6.30112 12.8667 6.20308 12.9687 6.05877C13.0706 5.91446 13.1113 5.73563 13.0817 5.56143L12.6837 3.23479C12.6716 3.1461 12.6418 3.06075 12.5961 2.98382C12.5503 2.90689 12.4896 2.83996 12.4174 2.78702C12.3452 2.73408 12.2632 2.69622 12.176 2.67568C12.0889 2.65515 11.9986 2.65236 11.9104 2.6675C11.8221 2.68263 11.7379 2.71538 11.6626 2.76378C11.5873 2.81217 11.5225 2.87524 11.4721 2.9492C11.4217 3.02317 11.3868 3.10653 11.3693 3.19431C11.3518 3.28208 11.3522 3.37248 11.3704 3.46012L11.4744 4.07278C10.8224 3.70657 10.104 3.47425 9.36104 3.38945C8.82208 3.32446 8.2764 3.34109 7.74239 3.43878C6.58893 3.63054 5.52472 4.17943 4.69976 5.0081C2.49111 7.21741 2.49111 10.8114 4.69976 13.0214C5.22553 13.5478 5.85016 13.9652 6.53775 14.2495C7.22534 14.5338 7.96234 14.6794 8.70638 14.678C9.45043 14.6794 10.1874 14.5338 10.875 14.2495C11.5626 13.9652 12.1872 13.5478 12.713 13.0214C13.5732 12.1684 14.1333 11.0593 14.309 9.86072C14.3348 9.68586 14.29 9.50793 14.1846 9.36604C14.0793 9.22416 13.9218 9.12992 13.747 9.10406H13.7463Z" fill="black"/>
</svg>
