<svg width="18" height="18" viewBox="0 0 18 18" fill="none" xmlns="http://www.w3.org/2000/svg">
<path d="M17.2058 0.862888C17.1907 0.794926 17.1378 0.742067 17.0736 0.723189C14.8611 0.183269 9.75263 2.10886 6.98507 4.87642C6.49045 5.36726 6.04115 5.89962 5.64093 6.46597C4.78763 6.39046 3.93433 6.45465 3.20563 6.7718C1.15167 7.67419 0.555111 10.034 0.385206 11.0459C0.351225 11.2422 0.483373 11.431 0.683483 11.465C0.717464 11.4687 0.751445 11.4725 0.785426 11.4687L4.08158 11.1063C4.08536 11.3555 4.10046 11.6047 4.12689 11.8501C4.14199 12.02 4.22128 12.1823 4.3421 12.3032L5.61828 13.5756C5.7391 13.6964 5.90145 13.7757 6.07136 13.7908C6.31677 13.8172 6.56219 13.8323 6.81139 13.8361L6.44892 17.1285C6.42627 17.3286 6.57352 17.5098 6.77363 17.5287C6.80761 17.5324 6.84159 17.5324 6.8718 17.5249C7.88367 17.3625 10.2472 16.766 11.1458 14.712C11.463 13.9833 11.5272 13.1338 11.4555 12.2843C12.0256 11.8841 12.5579 11.431 13.0488 10.9401C15.8239 8.18013 17.7382 3.18492 17.2058 0.862888ZM12.8373 7.64398C12.1313 8.35003 10.9835 8.35381 10.2774 7.64398C9.56762 6.93793 9.56762 5.79013 10.2774 5.08031C10.9835 4.37048 12.1313 4.37048 12.8411 5.08031C13.5472 5.79013 13.5472 6.93793 12.8373 7.64398Z" fill="#404040"/>
<path d="M5.53174 14.4968C5.32408 14.7045 4.99182 14.7838 4.5916 14.8555C3.69299 15.0065 2.9001 14.2325 3.06246 13.3264C3.12287 12.9828 3.30787 12.4995 3.42114 12.3862C3.48533 12.322 3.48911 12.2163 3.42492 12.1521C3.38716 12.1144 3.33808 12.0955 3.28522 12.103C2.78306 12.1635 2.31487 12.3938 1.95996 12.7487C1.0689 13.6397 0.98584 16.9359 0.98584 16.9359C0.98584 16.9359 4.28577 16.8528 5.17305 15.9618C5.53174 15.6031 5.75828 15.1387 5.81869 14.6327C5.83379 14.4779 5.64123 14.3835 5.53174 14.4968Z" fill="#404040"/>
</svg>
