<svg width="14" height="14" viewBox="0 0 14 14" fill="none" xmlns="http://www.w3.org/2000/svg">
<circle cx="7.17479" cy="6.85057" r="6.666" fill="#43c0ff"/>
<path d="M7.98363 7.97303H4.59698V7.01037H7.95838C8.22982 7.01037 8.45286 6.96723 8.62751 6.88096C8.80426 6.79469 8.93472 6.67476 9.01888 6.52115C9.10515 6.36755 9.14724 6.18764 9.14513 5.98143C9.14724 5.77943 9.10515 5.59847 9.01888 5.43856C8.93472 5.27654 8.80636 5.14923 8.63382 5.05665C8.46338 4.96196 8.24665 4.91462 7.98363 4.91462H6.71482V10.4065H5.54701V3.94249H7.98363C8.48442 3.94249 8.90841 4.03297 9.2556 4.21393C9.60279 4.39279 9.86581 4.63582 10.0447 4.94303C10.2256 5.24813 10.3161 5.59111 10.3161 5.97196C10.3161 6.36755 10.2246 6.71579 10.0415 7.01668C9.85844 7.31547 9.59332 7.55009 9.24613 7.72053C8.89894 7.88886 8.47811 7.97303 7.98363 7.97303ZM8.13198 8.45278V9.41543H4.59698V8.45278H8.13198Z" fill="black"/>
</svg>
