<svg width="72" height="72" viewBox="0 0 72 72" fill="none" xmlns="http://www.w3.org/2000/svg">
<g clip-path="url(#clip0_122_64)">
<path d="M36 72C55.8823 72 72 55.8823 72 36C72 16.1178 55.8823 0 36 0C16.1178 0 0 16.1178 0 36C0 55.8823 16.1178 72 36 72Z" fill="#59AF99"/>
<path d="M39.7367 31.5685V27.3169H49.4099V20.6101H22.5648V27.3169H32.2632V31.5685C24.138 31.9609 18.0396 33.5917 18.0396 35.5285C18.0396 37.4653 24.1308 39.1033 32.2632 39.4885V53.5285H39.7367V39.4885C47.8619 39.0997 53.9604 37.4689 53.9604 35.5285C53.9604 33.5881 47.8799 31.9609 39.7367 31.5685ZM36 38.2501C27.2015 38.2501 20.07 36.8893 20.07 35.2513C20.07 33.8437 25.2647 32.6593 32.2559 32.3425V37.1449C33.4583 37.1989 34.7076 37.2313 35.9928 37.2313C37.278 37.2313 38.5343 37.1989 39.7295 37.1449V32.3425C46.7207 32.6593 51.9156 33.8437 51.9156 35.2513C51.93 36.9073 44.7983 38.2501 36 38.2501Z" fill="black"/>
<g clip-path="url(#clip1_122_64)">
<path d="M36 72C55.8823 72 72 55.8823 72 36C72 16.1178 55.8823 0 36 0C16.1178 0 0 16.1178 0 36C0 55.8823 16.1178 72 36 72Z" fill="#2B53B7"/>
<path d="M49.7915 43.8013V43.9525L48.6323 48.0745C48.5634 48.2791 48.43 48.456 48.2522 48.5786C48.0745 48.7012 47.8618 48.7631 47.646 48.7549L23.8859 49.8961L27.3383 37.9153L22.9355 39.2833L23.8283 36.5509L28.2239 35.1649L33.0839 18.3601C33.1526 18.1514 33.2852 17.9696 33.4628 17.8404C33.6405 17.7112 33.8543 17.6411 34.0739 17.6401L40.0139 17.3737C40.2101 17.3465 40.4092 17.3967 40.5691 17.5136C40.7289 17.6304 40.8371 17.8049 40.8707 18.0001V18.2305L36.8243 32.4289L41.2307 31.0429L40.4135 33.9229L35.9315 35.2405L33.4115 43.9525L48.9239 43.2685C49.1092 43.2298 49.3023 43.2634 49.4636 43.3625C49.6249 43.4615 49.7422 43.6185 49.7915 43.8013Z" fill="black"/>
<g clip-path="url(#clip2_122_64)">
<path d="M36 72C55.8823 72 72 55.8823 72 36C72 16.1178 55.8823 0 36 0C16.1178 0 0 16.1178 0 36C0 55.8823 16.1178 72 36 72Z" fill="#1A5AFF"/>
<path d="M51.228 23.5439V33.6239H41.04V53.9999H30.96V33.2171C30.96 30.6529 31.9781 28.1936 33.7906 26.3797C35.6032 24.5658 38.0617 23.5459 40.626 23.5439H51.228ZM30.96 23.5439C30.96 26.2173 29.898 28.7812 28.0076 30.6716C26.1172 32.5619 23.5534 33.6239 20.88 33.6239H20.772V23.5439H30.96Z" fill="black"/>
</g>
</g>
</g>
<defs>
<clipPath id="clip0_122_64">
<rect width="72" height="72" fill="black"/>
</clipPath>
<clipPath id="clip1_122_64">
<rect width="72" height="72" fill="black"/>
</clipPath>
<clipPath id="clip2_122_64">
<rect width="72" height="72" fill="black"/>
</clipPath>
</defs>
</svg>
