<svg width="72" height="72" viewBox="0 0 72 72" fill="none" xmlns="http://www.w3.org/2000/svg">
<circle cx="36" cy="36" r="36" fill="#59AF99"/>
<path d="M35.3523 58.3636V14.7273H38.1477V58.3636H35.3523ZM43.4148 28.6875C43.2557 27.1989 42.5852 26.0398 41.4034 25.2102C40.233 24.3807 38.7102 23.9659 36.8352 23.9659C35.517 23.9659 34.3864 24.1648 33.4432 24.5625C32.5 24.9602 31.7784 25.5 31.2784 26.1818C30.7784 26.8636 30.5227 27.642 30.5114 28.517C30.5114 29.2443 30.6761 29.875 31.0057 30.4091C31.3466 30.9432 31.8068 31.3977 32.3864 31.7727C32.9659 32.1364 33.608 32.4432 34.3125 32.6932C35.017 32.9432 35.7273 33.1534 36.4432 33.3239L39.7159 34.142C41.0341 34.4489 42.3011 34.8636 43.517 35.3864C44.7443 35.9091 45.8409 36.5682 46.8068 37.3636C47.7841 38.1591 48.5568 39.1193 49.125 40.2443C49.6932 41.3693 49.9773 42.6875 49.9773 44.1989C49.9773 46.2443 49.4545 48.0455 48.4091 49.6023C47.3636 51.1477 45.8523 52.358 43.875 53.233C41.9091 54.0966 39.5284 54.5284 36.733 54.5284C34.017 54.5284 31.6591 54.108 29.6591 53.267C27.6705 52.4261 26.1136 51.1989 24.9886 49.5852C23.875 47.9716 23.2727 46.0057 23.1818 43.6875H29.4034C29.4943 44.9034 29.8693 45.9148 30.5284 46.7216C31.1875 47.5284 32.0455 48.1307 33.1023 48.5284C34.1705 48.9261 35.3636 49.125 36.6818 49.125C38.0568 49.125 39.2614 48.9205 40.2955 48.5114C41.3409 48.0909 42.1591 47.5114 42.75 46.7727C43.3409 46.0227 43.642 45.1477 43.6534 44.1477C43.642 43.2386 43.375 42.4886 42.8523 41.8977C42.3295 41.2955 41.5966 40.7955 40.6534 40.3977C39.7216 39.9886 38.6307 39.625 37.3807 39.3068L33.4091 38.2841C30.5341 37.5455 28.2614 36.4261 26.5909 34.9261C24.9318 33.4148 24.1023 31.4091 24.1023 28.9091C24.1023 26.8523 24.6591 25.0511 25.7727 23.5057C26.8977 21.9602 28.4261 20.7614 30.358 19.9091C32.2898 19.0455 34.4773 18.6136 36.9205 18.6136C39.3977 18.6136 41.5682 19.0455 43.4318 19.9091C45.3068 20.7614 46.7784 21.9489 47.8466 23.4716C48.9148 24.983 49.4659 26.7216 49.5 28.6875H43.4148Z" fill="black"/>
</svg>
