<svg width="25" height="25" viewBox="0 0 25 25" fill="none" xmlns="http://www.w3.org/2000/svg">
<path d="M12.304 24.4565C18.9307 24.4565 24.3028 19.0844 24.3028 12.4577C24.3028 5.83094 18.9307 0.458893 12.304 0.458893C5.67722 0.458893 0.305176 5.83094 0.305176 12.4577C0.305176 19.0844 5.67722 24.4565 12.304 24.4565Z" fill="#59AF99"/>
<path d="M13.5493 10.9807V9.56362H16.7734V7.32825H7.82588V9.56362H11.0584V10.9807C8.35022 11.1115 6.31763 11.655 6.31763 12.3005C6.31763 12.9461 8.34782 13.492 11.0584 13.6204V18.2999H13.5493V13.6204C16.2574 13.4908 18.29 12.9473 18.29 12.3005C18.29 11.6538 16.2634 11.1115 13.5493 10.9807ZM12.3038 13.2077C9.37132 13.2077 6.99436 12.7541 6.99436 12.2082C6.99436 11.739 8.72579 11.3442 11.056 11.2387V12.8393C11.4567 12.8573 11.8731 12.8681 12.3014 12.8681C12.7298 12.8681 13.1485 12.8573 13.5469 12.8393V11.2387C15.8771 11.3442 17.6085 11.739 17.6085 12.2082C17.6133 12.7601 15.2363 13.2077 12.3038 13.2077Z" fill="black"/>
<g clip-path="url(#clip0_29_215)">
<path d="M12.304 24.4565C18.9307 24.4565 24.3028 19.0844 24.3028 12.4577C24.3028 5.83094 18.9307 0.458893 12.304 0.458893C5.67722 0.458893 0.305176 5.83094 0.305176 12.4577C0.305176 19.0844 5.67722 24.4565 12.304 24.4565Z" fill="#2E79CC"/>
<path d="M15.4139 14.1256C15.4139 12.4841 14.4348 11.9166 12.4694 11.6886C11.0703 11.4966 10.7895 11.1295 10.7895 10.4659C10.7895 9.8024 11.2611 9.38604 12.1958 9.38604C12.5295 9.33381 12.8708 9.40537 13.1554 9.58725C13.4401 9.76912 13.6484 10.0488 13.7412 10.3735C13.7656 10.4426 13.8105 10.5026 13.8699 10.5455C13.9293 10.5883 14.0004 10.6121 14.0736 10.6135H14.8091C14.8938 10.6139 14.9753 10.581 15.0361 10.522C15.0968 10.4631 15.1321 10.3826 15.1343 10.2979V10.2764C15.0446 9.76871 14.7894 9.30505 14.4084 8.95774C14.0275 8.61044 13.5422 8.39904 13.0285 8.35654V7.19026C13.0285 7.00548 12.8893 6.86629 12.6541 6.8147H11.9174C11.7338 6.8147 11.5934 6.95388 11.549 7.19026V8.27015C10.9482 8.29348 10.3783 8.54228 9.95266 8.967C9.52706 9.39171 9.27707 9.96116 9.25248 10.5619C9.25248 12.1086 10.1872 12.7217 12.1526 12.9545C13.4629 13.1825 13.89 13.4704 13.89 14.2132C13.89 14.9559 13.2349 15.4802 12.3446 15.4802C11.1219 15.4802 10.7031 14.9643 10.5627 14.2648C10.5488 14.1869 10.508 14.1163 10.4476 14.0653C10.3871 14.0142 10.3107 13.9859 10.2316 13.9852H9.46606C9.42446 13.9842 9.38307 13.9915 9.34427 14.0065C9.30548 14.0216 9.27002 14.0441 9.23994 14.0728C9.20985 14.1016 9.18572 14.136 9.16894 14.1741C9.15215 14.2121 9.14302 14.2531 9.14209 14.2947V14.3535C9.22642 14.9628 9.52292 15.5228 9.97943 15.9349C10.4359 16.3471 11.0232 16.5851 11.6378 16.6069V17.7372C11.6378 17.922 11.777 18.0612 12.0134 18.1056H12.7489C12.8457 18.1005 12.9373 18.0603 13.0064 17.9925C13.0756 17.9246 13.1176 17.8338 13.1245 17.7372V16.6117C13.7506 16.556 14.3346 16.2727 14.766 15.8154C15.1974 15.3582 15.4462 14.7587 15.4655 14.1304L15.4139 14.1256Z" fill="black"/>
<path d="M9.91729 19.0139C8.56108 18.5247 7.38873 17.6291 6.56007 16.4493C5.73142 15.2695 5.28678 13.8629 5.28678 12.4211C5.28678 10.9794 5.73142 9.57272 6.56007 8.39291C7.38873 7.21311 8.56108 6.31756 9.91729 5.82838C10.0065 5.78772 10.081 5.72075 10.131 5.63645C10.181 5.55215 10.204 5.45457 10.1969 5.35683V4.72329C10.2007 4.63903 10.1747 4.55612 10.1237 4.48902C10.0726 4.42191 9.99952 4.37488 9.91729 4.35613C9.84943 4.34823 9.78113 4.3667 9.72651 4.40772C8.02213 4.95029 6.53453 6.02096 5.47888 7.46487C4.42322 8.90878 3.85425 10.6511 3.85425 12.4397C3.85425 14.2284 4.42322 15.9707 5.47888 17.4146C6.53453 18.8585 8.02213 19.9291 9.72651 20.4717C9.79207 20.5102 9.87023 20.5211 9.9438 20.5019C10.0174 20.4828 10.0803 20.4353 10.1189 20.3697C10.1354 20.3419 10.1471 20.3115 10.1537 20.2797C10.1969 20.2365 10.1969 20.1921 10.1969 20.0962V19.441C10.1838 19.3539 10.1521 19.2706 10.1038 19.1968C10.0556 19.1231 9.99195 19.0607 9.91729 19.0139ZM14.88 4.39932C14.8163 4.3609 14.74 4.3493 14.6678 4.36707C14.5956 4.38484 14.5334 4.43053 14.4948 4.49411C14.4778 4.52173 14.466 4.55223 14.46 4.58411C14.4156 4.6357 14.4156 4.6801 14.4156 4.77489V5.43002C14.4236 5.52365 14.453 5.6142 14.5014 5.6947C14.5499 5.7752 14.6162 5.84351 14.6952 5.89437C16.0441 6.38782 17.2089 7.28381 18.0318 8.46106C18.8547 9.63831 19.296 11.04 19.296 12.4763C19.296 13.9127 18.8547 15.3143 18.0318 16.4916C17.2089 17.6688 16.0441 18.5648 14.6952 19.0583C14.6053 19.0979 14.53 19.1647 14.4799 19.2492C14.4297 19.3338 14.4073 19.4319 14.4156 19.5298V20.1849C14.4098 20.2706 14.4348 20.3555 14.486 20.4244C14.5373 20.4933 14.6115 20.5415 14.6952 20.5605C14.7611 20.5667 14.8269 20.5484 14.88 20.5089C16.5855 19.9609 18.0731 18.8857 19.1284 17.4382C20.1837 15.9907 20.7523 14.2455 20.7523 12.4541C20.7523 10.6627 20.1837 8.91758 19.1284 7.47005C18.0731 6.02251 16.5855 4.94731 14.88 4.39932Z" fill="black"/>
</g>
<defs>
<clipPath id="clip0_29_215">
<rect width="23.9976" height="23.9976" fill="black" transform="translate(0.305176 0.458893)"/>
</clipPath>
</defs>
</svg>
