<svg width="72" height="72" viewBox="0 0 72 72" fill="none" xmlns="http://www.w3.org/2000/svg">
<path d="M36.0291 0.0581055C16.1629 0.0581055 0.0581055 16.1629 0.0581055 36.0291C0.0581055 55.8952 16.1629 72 36.0291 72C55.8952 72 72 55.8949 72 36.0291C72 16.1629 55.8952 0.0581055 36.0291 0.0581055ZM51.0842 52.0561C48.7459 56.0743 43.4946 57.4912 39.3557 55.2215C35.2166 52.9517 33.7568 47.8541 36.0957 43.8356C37.0698 42.1617 36.4618 40.0383 34.7369 39.0919C33.0364 38.1594 30.885 38.7217 29.8916 40.3431H29.891V40.3365C29.877 40.3612 29.8646 40.3857 29.8503 40.4101C27.512 44.4283 22.261 45.8456 18.1222 43.5755C13.9827 41.3058 12.5229 36.2075 14.8612 32.1903C17.2002 28.1718 22.4509 26.7548 26.5906 29.0252C27.974 29.784 29.056 30.86 29.7995 32.1048V32.1004L29.8002 32.0998C30.8314 33.6974 32.9926 34.2124 34.6708 33.2437C36.3732 32.2611 36.933 30.1246 35.9205 28.4718C33.4913 24.505 34.8346 19.3772 38.9211 17.0192C43.0069 14.6609 48.289 15.9648 50.7188 19.9312C53.1479 23.8983 51.8053 29.0258 47.7182 31.3841C46.3955 32.1471 44.8965 32.5514 43.3695 32.557L43.3733 32.5585V32.5592C41.4128 32.6249 39.8552 34.1978 39.8787 36.1122C39.9018 38.0521 41.542 39.6072 43.5403 39.5843L43.5279 39.591C45.0289 39.5774 46.5083 39.9492 47.8245 40.6708C51.9627 42.9412 53.4226 48.0385 51.0842 52.0561Z" fill="black"/>
</svg>
